<svg width="375" height="400" viewBox="0 0 375 400" fill="none" xmlns="http://www.w3.org/2000/svg">
<path d="M304.244 315.75C228.242 359.781 118.768 330.383 75.524 255.222C32.2798 180.061 31.3564 105.791 107.358 61.7587C183.36 17.7268 239.356 44.6478 282.6 119.809C325.844 194.97 380.246 271.718 304.244 315.75Z" fill="#FBDF6A" fill-opacity="0.21"/>
<path d="M325.144 87.6149C314.277 78.1882 313.428 59.04 323.229 47.6627C333.029 36.2854 344.829 31.682 355.696 41.1087C366.564 50.5354 365.102 61.0429 355.302 72.4202C345.501 83.7975 336.012 97.0417 325.144 87.6149Z" fill="#FBDF6A" fill-opacity="0.21"/>
<path d="M355.564 309.79C365.722 319.983 361.898 342.441 347.752 356.636C333.606 370.831 314.828 372.911 308.698 367.028C302.568 361.145 302.86 344.353 317.006 330.158C331.151 315.963 345.407 299.597 355.564 309.79Z" fill="#FBDF6A" fill-opacity="0.21"/>
<path d="M23.3228 254.649C37.1983 250.918 54.6679 265.471 59.8457 284.861C65.0234 304.252 57.4304 321.611 49.2882 323.996C41.146 326.382 26.7992 317.732 21.6214 298.342C16.4437 278.951 9.44727 258.38 23.3228 254.649Z" fill="#FBDF6A" fill-opacity="0.21"/>
<path d="M98.0695 114.757L142.851 182.713C142.851 182.713 168.203 181.154 177.831 167.182L154.224 89.7178C154.224 89.7178 115.48 111.119 98.0695 114.757Z" fill="#BA5F49"/>
<g style="mix-blend-mode:multiply" opacity="0.75">
<path d="M157.267 99.4478L154.286 89.6696C154.286 89.6696 115.542 111.07 98.1312 114.709L107.649 129.155C128.037 124 139.72 117.159 157.267 99.4478Z" fill="#8F5243"/>
</g>
<path d="M160.119 131.784C156.209 123.487 146.084 120.06 137.506 124.129C128.927 128.198 125.142 138.223 129.053 146.52C132.963 154.816 143.088 158.244 151.667 154.175C160.245 150.106 164.03 140.081 160.119 131.784Z" fill="#CCB1B1"/>
<path d="M156.274 133.191C157.656 136.313 157.749 139.855 156.534 143.044C155.318 146.233 152.894 148.808 149.79 150.206C148.288 150.995 146.641 151.471 144.95 151.605C143.259 151.739 141.559 151.528 139.951 150.985C138.343 150.442 136.861 149.578 135.594 148.445C134.328 147.312 133.303 145.934 132.581 144.393C131.859 142.852 131.455 141.181 131.394 139.479C131.332 137.778 131.615 136.082 132.224 134.493C132.833 132.905 133.757 131.457 134.939 130.236C136.121 129.016 137.537 128.048 139.101 127.392C142.145 125.885 145.66 125.649 148.878 126.736C152.096 127.823 154.755 130.144 156.274 133.191V133.191Z" fill="#F0E1DD"/>
<path d="M141.021 144.381C140.752 143.418 140.769 142.398 141.071 141.446C141.372 140.493 141.945 139.65 142.718 139.02C143.638 138.056 144.91 137.516 145.822 136.606C146.735 135.697 146.52 134.293 146.346 133.007C146.182 131.922 145.958 130.848 145.674 129.788C142.738 129.976 139.67 132.661 138.257 136.654C136.524 141.518 137.888 146.468 141.317 147.692C141.757 147.846 142.218 147.933 142.684 147.951C141.994 146.829 141.436 145.631 141.021 144.381V144.381Z" fill="#8F4B46"/>
<path d="M147.566 129.988C147.776 130.839 147.959 131.719 148.115 132.628C148.358 133.461 148.41 134.338 148.266 135.194C148.122 136.049 147.785 136.86 147.282 137.566C145.935 139.037 142.674 140.251 142.552 142.666C142.715 144.491 143.436 146.221 144.615 147.621C146.05 147.048 147.338 146.158 148.383 145.017C149.429 143.876 150.204 142.513 150.653 141.03C152.343 136.174 150.991 131.239 147.566 129.988Z" fill="#8F4B46"/>
<g style="mix-blend-mode:screen">
<path d="M168.311 170.969C169.537 170.016 171.027 168.857 172.548 167.674C167.952 154.937 153.025 113.446 147.967 98.8239C145.569 100.166 143.095 101.366 140.557 102.417C145.815 116.559 161.12 156.609 167.521 171.459C167.83 171.343 168.075 171.178 168.311 170.969Z" fill="#8F524D"/>
</g>
<g style="mix-blend-mode:multiply" opacity="0.55">
<path d="M136.969 142.868C129.438 135.755 123.199 127.064 116.481 119.17C114.911 117.409 113.467 115.54 112.16 113.576C108.899 114.861 105.545 115.894 102.126 116.665L143.132 179.153C143.132 179.153 166.034 177.928 174.727 165.157L172.078 156.517C159.381 157.413 146.928 152.257 136.969 142.868Z" fill="#8B4B3A"/>
</g>
<g style="mix-blend-mode:multiply" opacity="0.55">
<path d="M118.807 111.374C116.392 112.429 111.266 113.897 109.001 114.76C116.013 126.766 147.46 177.133 148.355 178.582C151.245 178.081 154.099 177.393 156.901 176.525C154.294 172.442 120.311 114.544 118.807 111.374Z" fill="#A75640"/>
</g>
<g style="mix-blend-mode:screen">
<path d="M155.548 119.739C155.795 120.577 155.79 121.469 155.534 122.303C155.277 123.137 154.781 123.877 154.107 124.429C153.433 124.982 152.612 125.322 151.746 125.407C150.88 125.493 150.008 125.32 149.239 124.91C148.471 124.5 147.84 123.872 147.425 123.104C147.011 122.335 146.832 121.462 146.91 120.592C146.989 119.722 147.321 118.895 147.866 118.215C148.411 117.534 149.144 117.03 149.974 116.767C150.534 116.594 151.123 116.534 151.707 116.59C152.29 116.646 152.857 116.817 153.375 117.093C153.893 117.369 154.351 117.745 154.724 118.199C155.097 118.653 155.377 119.176 155.548 119.739Z" fill="#B28784"/>
</g>
<g style="mix-blend-mode:screen">
<path d="M155.002 111.634C155.122 112.126 155.097 112.642 154.929 113.119C154.761 113.596 154.458 114.014 154.057 114.321C153.656 114.627 153.174 114.81 152.671 114.846C152.168 114.882 151.665 114.77 151.224 114.524C150.784 114.278 150.424 113.908 150.189 113.459C149.955 113.011 149.856 112.504 149.904 112C149.953 111.496 150.147 111.017 150.462 110.623C150.778 110.228 151.201 109.934 151.681 109.778C152.02 109.678 152.376 109.648 152.727 109.687C153.079 109.727 153.419 109.837 153.728 110.009C154.037 110.182 154.308 110.415 154.527 110.693C154.746 110.972 154.907 111.292 155.002 111.634V111.634Z" fill="#B28784"/>
</g>
<path d="M92.009 110.641L92.2119 121.357C92.2119 121.357 110.762 121.896 132.401 109.483C154.039 97.0696 161.793 89.6432 161.793 89.6432L153.924 80.3237C153.924 80.3237 133.305 77.6529 92.009 110.641Z" fill="#F2F2F2"/>
<g style="mix-blend-mode:screen" opacity="0.9">
<path d="M100.381 115.852C100.683 112.066 101.19 108.299 101.901 104.569L102.155 103C98.9666 105.305 95.5627 107.877 92.0447 110.688L92.2116 121.357C94.7278 121.355 97.2403 121.168 99.7292 120.799C99.8632 119.14 100.081 117.489 100.381 115.852V115.852Z" fill="#F2F2F2"/>
</g>
<g style="mix-blend-mode:screen" opacity="0.9">
<path d="M137.024 106.785C155.149 96.0312 161.761 89.6675 161.761 89.6675L153.924 80.3238C150.301 80.1727 146.678 80.637 143.21 81.6973C141.644 90.1232 139.05 98.3758 137.024 106.785Z" fill="#F2F2F2"/>
</g>
<path d="M92.0093 110.641L92.2122 121.357C92.2122 121.357 110.762 121.896 132.401 109.483C154.04 97.0695 161.793 89.6431 161.793 89.6431L153.925 80.3236C153.925 80.3236 136.768 101.049 92.0093 110.641Z" fill="#DEDEDE"/>
<g style="mix-blend-mode:screen" opacity="0.65">
<path d="M144.449 88.6403C142.353 90.2696 139.779 91.9222 136.826 93.6951C137.943 96.9421 139.402 100.247 140.182 102.608C140.381 103.251 140.595 103.883 140.842 104.589C145.044 102.02 148.492 99.762 151.316 97.7901C148.814 94.9069 146.519 91.8493 144.449 88.6403V88.6403Z" fill="#C7CBC9"/>
</g>
<g style="mix-blend-mode:multiply" opacity="0.35">
<path d="M119.33 102.338C111.976 105.305 104.414 107.726 96.7053 109.582C96.7477 110.023 96.7901 110.464 96.805 110.901C96.9619 114.321 96.7881 117.698 97.2274 121.098C107.611 119.976 117.717 117.038 127.089 112.416C123.447 110.028 120.713 106.477 119.33 102.338V102.338Z" fill="#8F838D"/>
</g>
<path d="M98.848 95.9194L100.372 106.481C109.815 104.337 118.899 100.834 127.342 96.0822C141.475 88.1345 145.197 83.8186 145.197 83.8186L139.412 75.8465C139.412 75.8465 128.548 74.9672 113.186 84.1207C107.828 87.2866 102.991 91.2667 98.848 95.9194V95.9194Z" fill="#F2F2F2"/>
<g style="mix-blend-mode:screen" opacity="0.9">
<path d="M139.12 79.1669C139.38 78.7646 139.617 78.3312 139.854 77.8978C140.01 77.5721 140.213 77.2713 140.456 77.0053L139.481 75.7431C137.345 75.6762 135.209 75.8563 133.114 76.28C133.016 77.7285 132.886 79.201 132.72 80.6268C132.555 82.0527 132.372 83.392 132.144 84.8661C134.586 83.1156 136.916 81.212 139.12 79.1669Z" fill="#F2F2F2"/>
</g>
<g style="mix-blend-mode:screen" opacity="0.9">
<path d="M121.697 90.8952C122.719 90.4495 123.721 89.945 124.707 89.4526C124.161 88.6865 123.898 87.7541 123.961 86.8149C124.089 84.0216 124.586 81.191 124.947 78.4415C123.716 78.8746 122.42 79.3837 121.133 79.936C120.245 83.8687 119.669 87.8832 119.053 91.8786C119.882 91.6331 120.796 91.2719 121.697 90.8952Z" fill="#F2F2F2"/>
</g>
<g style="mix-blend-mode:screen" opacity="0.9">
<path d="M103.266 96.3001C103.434 95.7035 103.621 95.1092 103.826 94.5173C104.218 92.9657 104.625 91.4021 105.056 89.8696C102.823 91.7097 100.746 93.7333 98.8481 95.9196L99.0764 97.6625C100.455 97.164 101.842 96.7087 103.266 96.3001Z" fill="#F2F2F2"/>
</g>
<path d="M123.166 86.6855C115.569 90.7014 107.486 93.7174 99.1194 95.659L98.8245 95.8883L100.373 106.481C109.816 104.337 118.899 100.834 127.343 96.0822C141.475 88.1346 145.197 83.8187 145.197 83.8187L139.497 75.9556C134.4 80.0366 128.932 83.6289 123.166 86.6855V86.6855Z" fill="#DEDEDE"/>
<g style="mix-blend-mode:screen" opacity="0.65">
<path d="M133.553 80.3536C131.929 81.467 130.398 82.508 128.791 83.4832C130.078 86.5974 131.775 89.5672 133.256 92.4813C136.792 90.3051 139.371 88.4986 141.211 87.1177C138.786 84.8137 136.138 82.6078 133.553 80.3536Z" fill="#C7CBC9"/>
</g>
<g style="mix-blend-mode:multiply" opacity="0.35">
<path d="M119.013 92.5338C118.303 91.6145 117.569 90.664 116.913 89.6531C111.222 92.2609 105.274 94.2618 99.1659 95.6228L98.871 95.8521L100.373 106.481C108.516 104.639 116.397 101.778 123.83 97.9663C122.072 96.2974 120.461 94.4798 119.013 92.5338V92.5338Z" fill="#8F838D"/>
</g>
<path d="M104.785 92.3498C108.975 88.9054 113.505 85.9007 118.304 83.3827C122.671 81.3979 127.227 79.8607 131.901 78.7945C127.795 81.7268 123.503 84.3894 119.054 86.7655C114.44 88.9745 109.671 90.8409 104.785 92.3498V92.3498Z" fill="#A1A8A6"/>
<g style="mix-blend-mode:multiply">
<path d="M113.786 85.574C113.012 86.0513 112.307 86.8744 111.521 87.3361C110.086 88.5952 108.752 89.9659 107.532 91.4354C109.493 90.7583 112.251 89.7612 115.539 88.3261C115.133 85.001 114.243 85.3934 113.786 85.574Z" fill="#A1A8A6"/>
</g>
<path d="M109.856 89.877C109.382 89.9711 108.908 89.5172 108.681 88.8703C108.021 86.8898 107.056 83.5501 107.524 83.0619C107.853 81.7834 114.639 85.3597 114.604 85.6362C114.475 86.4345 114.135 88.2453 113.661 88.5641C112.458 89.1739 111.178 89.6157 109.856 89.877V89.877Z" fill="#DEDEDE"/>
<g style="mix-blend-mode:screen" opacity="0.65">
<path d="M108.046 82.8055C109.819 83.1721 111.75 85.2865 113.63 88.5884C114.111 88.2142 114.46 86.4467 114.573 85.6604C114.639 85.3598 109.047 82.5258 108.046 82.8055Z" fill="#DEDEDE"/>
</g>
<path d="M306 111.356C300.554 105.387 262.433 106.591 243.973 120.36C237.677 125.05 233.98 131.947 228.984 137.089C204.378 162.897 213.121 181.582 233.481 192.593C244.972 198.788 269.003 198.462 289.387 186.849C309.772 175.237 317.316 165.18 319.364 153.517C323.336 128.486 306 111.356 306 111.356ZM292.785 154.721C289.737 154.069 285.291 152.589 280.719 151.736C280.578 151.748 280.436 151.748 280.294 151.736C277.348 151.841 274.411 152.134 271.501 152.614C270.343 153.519 269.134 154.357 267.879 155.122C265.447 156.082 263.377 157.784 261.959 159.988C261.458 160.836 260.796 161.578 260.01 162.17C258.964 163.815 258.038 165.533 257.237 167.311C253.066 176.566 249.044 162.897 244.947 159.612C242.748 155.95 263.482 133.176 276.397 135.383C278.092 135.416 279.774 135.686 281.394 136.186L281.918 136.387C286.64 137.064 291.336 138.243 295.982 139.246C305.9 141.453 302.677 156.978 292.785 154.796V154.721Z" fill="#EE9843"/>
<g style="mix-blend-mode:multiply" opacity="0.65">
<path d="M305.151 110.729C297.382 105.512 261.684 107.142 243.973 120.36C237.678 125.05 233.981 131.947 228.984 137.089C209.749 157.154 210.923 173.055 221.99 184.241L223.014 185.144C228.01 185.972 233.556 185.144 237.803 185.495C245.297 186.323 252.791 194.173 260.285 190.261C267.355 186.549 272.526 186.473 280.27 185.746C287.239 185.069 289.438 176.767 296.357 175.087C299.155 174.434 304.951 174.61 305.275 170.572C305.282 168.644 305.717 166.742 306.55 165.004C309.797 159.461 318.191 159.787 316.142 152.263C314.393 145.968 315.418 139.171 318.64 135.459C316.492 121.89 307.749 113.638 305.151 110.729ZM292.66 154.796C289.613 154.144 285.166 152.664 280.595 151.811C280.453 151.824 280.311 151.824 280.17 151.811C277.223 151.916 274.286 152.21 271.377 152.689C270.218 153.595 269.009 154.432 267.755 155.197C265.323 156.158 263.252 157.859 261.834 160.063C261.333 160.912 260.671 161.653 259.886 162.245C258.84 163.89 257.913 165.608 257.113 167.387C255.089 171.851 253.141 170.998 251.167 168.54C248.469 166.935 245.796 160.189 243.074 158.006C240.875 154.37 261.609 131.571 274.524 133.778C276.218 133.823 277.898 134.092 279.52 134.581C279.709 134.641 279.893 134.716 280.07 134.807C284.791 135.459 289.488 136.638 294.134 137.666C295.944 138.002 297.56 139.015 298.656 140.5C305.101 144.739 301.603 156.752 292.785 154.796H292.66Z" fill="#D98B43"/>
</g>
<path d="M221.39 169.042C221.99 169.669 222.589 170.296 223.214 170.898L225.137 170.095C230.483 167.888 235.279 164.527 240.65 162.32L245.646 160.289C245.473 160.094 245.281 159.917 245.072 159.762C242.874 156.1 263.608 133.327 276.523 135.534C278.217 135.566 279.899 135.836 281.519 136.337L282.043 136.537C284.741 136.938 287.439 137.49 290.137 138.067C292.385 135.208 294.609 132.248 297.057 129.464C300.876 124.632 305.123 120.158 309.747 116.096C308.592 114.443 307.341 112.86 306 111.356C300.554 105.387 262.433 106.591 243.973 120.36C237.678 125.05 233.98 131.947 228.984 137.089C218.542 148.024 214.495 158.082 214.82 166.86C216.009 166.568 217.255 166.618 218.417 167.004C219.579 167.39 220.609 168.096 221.39 169.042Z" fill="#822A00"/>
<path d="M316.442 153.843C316.042 151.059 312.77 146.193 313.195 143.56C313.619 140.926 317.017 138.544 318.191 136.312C320.414 132.374 318.191 127.759 316.817 123.771C311.396 108.07 299.33 97.2355 271.477 98.8908C257.063 99.7185 229.01 106.917 214.421 134.004C205.678 150.206 208.101 161.794 215.97 173.055C218.942 177.319 227.736 184.567 234.031 183.915C237.103 183.564 238.652 181.858 242.075 182.561C244.651 183.157 247.06 184.331 249.119 185.997C254.64 190.035 258.487 189.207 264.457 185.997C267.755 184.166 269.029 182.962 272.801 183.79C275.507 184.529 278.379 184.38 280.994 183.363C286.89 180.855 285.766 171.901 294.084 173.331C297.107 173.808 300.055 174.61 302.203 171.826C304.351 169.042 301.903 166.258 303.352 163.474C306.425 157.655 317.891 163.625 316.442 153.843ZM243.099 140.224C253.666 117.802 274.025 128.01 275.948 132.098C283.568 148.024 232.657 162.496 243.099 140.224Z" fill="#A73D22"/>
<g style="mix-blend-mode:screen" opacity="0.75">
<path d="M237.028 141.227C237.899 134.136 240.47 127.363 244.522 121.489C246.607 118.566 249.416 116.241 252.672 114.746C255.928 113.25 259.517 112.635 263.083 112.961C272.475 114.341 279.295 123.897 288.763 124.749C290.703 124.981 292.671 124.721 294.486 123.994C296.301 123.266 297.906 122.095 299.155 120.586C300.342 119.03 300.939 117.1 300.838 115.142C300.738 113.184 299.946 111.327 298.605 109.901C297.34 108.853 295.879 108.068 294.308 107.594C281.121 102.776 266.668 102.755 253.467 107.535C240.266 112.315 229.153 121.593 222.064 133.753C219.305 137.774 218.025 142.633 218.442 147.498C219.241 152.263 223.813 156.627 228.434 155.624C229.862 155.216 231.177 154.483 232.277 153.483C233.378 152.483 234.234 151.241 234.779 149.855C235.894 147.088 236.65 144.188 237.028 141.227Z" fill="#B1523A"/>
</g>
<g style="mix-blend-mode:screen" opacity="0.75">
<path d="M272.676 155.198C263.983 159.286 253.916 159.01 244.348 159.838C241.998 159.942 239.686 160.478 237.528 161.418C236.455 161.901 235.522 162.649 234.814 163.591C234.107 164.534 233.648 165.641 233.481 166.81C233.182 170.898 237.578 173.757 241.575 174.585C249.619 176.215 257.862 173.532 265.581 170.748C273.072 168.387 280.207 165.012 286.79 160.715C293.407 156.321 298.12 149.573 299.98 141.829C300.525 139.566 300.386 137.191 299.58 135.007C298.656 132.876 296.458 130.668 294.234 131.295C286.241 133.452 286.79 148.576 272.676 155.198Z" fill="#B1523A"/>
</g>
<path d="M286.139 108.848C285.387 108.801 284.637 108.985 283.991 109.375L279.395 111.557L280.719 113.914C283.005 112.397 285.651 111.515 288.388 111.356C287.888 110.278 287.263 109.124 286.139 108.848Z" fill="#CC3131"/>
<path d="M311.42 129.063C310.669 128.992 309.915 129.168 309.272 129.565L304.675 131.747L305.999 134.105C308.271 132.557 310.906 131.632 313.643 131.421C313.169 130.418 312.544 129.264 311.42 129.063Z" fill="#CC3131"/>
<path d="M309.722 137.816L304.551 136.136C302.291 138.727 299.88 141.18 297.332 143.485C299.588 143.86 301.683 144.899 303.352 146.469C305.098 143.324 307.239 140.416 309.722 137.816V137.816Z" fill="#EAD4AF"/>
<path d="M226.961 152.464L221.79 150.808C219.537 153.397 217.126 155.843 214.571 158.132C216.831 158.488 218.934 159.51 220.616 161.066C222.364 157.944 224.496 155.053 226.961 152.464V152.464Z" fill="#EAD4AF"/>
<path d="M278.996 163.048C278.275 162.665 277.461 162.492 276.648 162.546H271.951C271.551 164.227 271.127 165.882 270.702 167.563C273.89 166.561 277.245 166.211 280.57 166.534C280.578 165.873 280.441 165.218 280.169 164.615C279.897 164.013 279.496 163.478 278.996 163.048V163.048Z" fill="#FFCC00"/>
<path d="M290.911 132.374C290.144 131.97 289.277 131.796 288.413 131.872H283.742L282.468 136.888C285.636 135.918 288.967 135.603 292.26 135.96C292.306 135.3 292.209 134.638 291.977 134.019C291.744 133.4 291.38 132.839 290.911 132.374V132.374Z" fill="#FFCC00"/>
<path d="M228.735 139.196C228.735 140.6 228.96 142.005 229.06 143.435L238.702 141.278C238.155 140.221 237.946 139.022 238.103 137.842C235.039 138.639 231.898 139.093 228.735 139.196Z" fill="#14B661"/>
<path d="M244.722 119.056L236.978 122.392C236.68 123.708 236.621 125.067 236.803 126.405C239.607 124.686 242.657 123.409 245.846 122.617C245.144 121.561 244.754 120.326 244.722 119.056V119.056Z" fill="#CC3131"/>
<path d="M258.087 119.833L261.909 118.178C261.276 117.819 260.726 117.329 260.296 116.741C259.865 116.153 259.564 115.48 259.411 114.767C259.141 113.354 258.473 112.048 257.487 111.005L254.564 111.657C255.764 114.391 256.888 117.1 258.087 119.833Z" fill="#FFCC00"/>
<path d="M236.978 153.291L240.825 151.636C240.186 151.285 239.632 150.797 239.2 150.208C238.769 149.619 238.471 148.942 238.327 148.225C238.057 146.812 237.39 145.507 236.404 144.463L233.481 145.115L236.978 153.291Z" fill="#FFCC00"/>
<path d="M276.647 119.482L274.149 118.178L268.579 122.542L272.725 124.398L276.647 119.482Z" fill="#EAD4AF"/>
<path d="M251.367 173.532L248.869 172.227L243.298 176.566L247.47 178.422L251.367 173.532Z" fill="#EAD4AF"/>
<path d="M292.034 120.109C291.971 119.737 291.804 119.391 291.552 119.111C291.3 118.831 290.973 118.629 290.61 118.529C290.246 118.43 289.859 118.452 289.508 118.592C289.156 118.732 288.86 118.983 288.662 119.307C288.549 119.532 288.457 119.767 288.388 120.009C287.739 122.375 287.687 124.866 288.238 127.257C289.426 126.689 290.759 126.496 292.059 126.706C291.526 125.448 291.395 124.054 291.684 122.718C291.982 121.883 292.101 120.994 292.034 120.109V120.109Z" fill="#14B661"/>
<path d="M273.875 169.995C273.799 169.624 273.624 169.281 273.369 169.003C273.114 168.725 272.788 168.521 272.426 168.415C272.062 168.328 271.68 168.359 271.335 168.503C270.99 168.647 270.698 168.897 270.503 169.218C270.361 169.429 270.267 169.668 270.228 169.92C269.58 172.286 269.528 174.777 270.079 177.168C271.258 176.57 272.595 176.359 273.9 176.566C273.366 175.3 273.235 173.898 273.525 172.553C273.807 171.732 273.926 170.863 273.875 169.995V169.995Z" fill="#14B661"/>
<path d="M244.323 167.111L248.119 167.688C248.519 165.18 248.918 162.797 249.343 160.339L246.396 161.518C245.721 163.324 245.022 165.23 244.323 167.111Z" fill="#CC3131"/>
<path d="M224.163 163.825C224.378 163.962 224.636 164.016 224.888 163.976L229.659 163.6C229.384 160.672 229.707 157.719 230.608 154.922C229.23 155.648 227.715 156.076 226.162 156.176C225.512 158.408 224.838 160.64 224.188 162.872C224.013 163.198 223.938 163.6 224.163 163.825Z" fill="#FFCC00"/>
<path d="M299.629 157.179C299.73 157.251 299.843 157.301 299.964 157.327C300.084 157.353 300.208 157.354 300.329 157.329L305.1 156.953C304.827 154.031 305.124 151.083 305.974 148.275C304.606 149.005 303.099 149.432 301.553 149.529C300.903 151.761 300.229 154.019 299.554 156.251C299.479 156.502 299.405 156.953 299.629 157.179Z" fill="#FFCC00"/>
<path d="M294.234 161.919C294.214 159.321 294.769 156.751 295.858 154.395H292.011L289.513 161.317L294.234 161.919Z" fill="#14B661"/>
<path d="M256.713 179.35L261.035 179.551C261.335 176.902 261.862 174.284 262.609 171.726C262.379 171.553 262.108 171.444 261.823 171.409C261.539 171.374 261.25 171.414 260.985 171.525L256.713 179.35Z" fill="#6BC3C3"/>
<path d="M217.668 141.754L215.62 148.526L219.441 148.827L220.69 141.303L217.668 141.754Z" fill="#CC3131"/>
<path d="M229.035 128.486C228.188 128.599 227.386 128.936 226.712 129.464L223.04 131.972L225.538 135.057C227.247 132.866 229.518 131.183 232.108 130.192C231.339 129.25 230.239 128.639 229.035 128.486Z" fill="#6BC3C3"/>
<path d="M239.85 161.016C239.003 161.129 238.201 161.466 237.527 161.994L233.855 164.503L236.353 167.587C238.106 165.343 240.439 163.626 243.098 162.621C242.264 161.683 241.099 161.108 239.85 161.016V161.016Z" fill="#6BC3C3"/>
<path d="M304.302 124.774C304.71 124.931 305.14 125.024 305.576 125.05C305.898 125.037 306.211 124.938 306.483 124.763C306.754 124.589 306.975 124.345 307.123 124.057C307.27 123.769 307.338 123.447 307.321 123.123C307.304 122.8 307.202 122.487 307.025 122.216C304.853 121.408 302.776 120.365 300.829 119.106C299.805 120.209 298.781 121.313 297.782 122.442L304.302 124.774Z" fill="#6BC3C3"/>
<path d="M284.866 157.63C285.268 157.805 285.701 157.899 286.14 157.906C286.465 157.901 286.784 157.807 287.06 157.634C287.337 157.461 287.562 157.216 287.71 156.925C287.859 156.634 287.926 156.308 287.905 155.982C287.883 155.655 287.774 155.341 287.589 155.072C285.419 154.259 283.343 153.217 281.393 151.962L278.346 155.298L284.866 157.63Z" fill="#6BC3C3"/>
<path d="M274.249 116.949C274.652 117.126 275.084 117.228 275.523 117.25C275.838 117.248 276.147 117.167 276.422 117.013C276.697 116.86 276.929 116.639 277.097 116.372C277.262 116.091 277.348 115.771 277.348 115.444C277.348 115.118 277.262 114.798 277.097 114.516C274.885 113.69 272.766 112.631 270.777 111.356L267.729 114.617L274.249 116.949Z" fill="#6BC3C3"/>
<path d="M246.895 132.775C247.296 132.955 247.73 133.049 248.169 133.051C248.494 133.044 248.812 132.949 249.089 132.777C249.365 132.605 249.591 132.362 249.743 132.073C249.903 131.79 249.987 131.47 249.987 131.145C249.987 130.82 249.903 130.5 249.743 130.217C247.571 129.409 245.494 128.366 243.548 127.107L240.5 130.443L246.895 132.775Z" fill="#6BC3C3"/>
<path d="M271.926 105.086C270.076 106.243 268.01 107.011 265.855 107.343C266.005 108.447 266.155 109.55 266.28 110.654C268.712 109.315 271.331 108.351 274.049 107.794C273.053 107.162 272.304 106.206 271.926 105.086V105.086Z" fill="#14B661"/>
<path d="M255.589 156.853C254.406 156.776 253.254 156.447 252.207 155.89C251.161 155.332 250.244 154.557 249.518 153.617L246.646 156.677C249.325 157.631 251.85 158.974 254.14 160.665C254.664 159.411 255.139 158.132 255.589 156.853Z" fill="#EAD4AF"/>
<path d="M250.168 113.538C248.987 113.458 247.835 113.128 246.789 112.57C245.743 112.013 244.826 111.24 244.098 110.303L241.225 113.337C243.896 114.32 246.418 115.671 248.719 117.35C249.169 116.071 249.669 114.817 250.168 113.538Z" fill="#EAD4AF"/>
<path d="M292.436 168.34C291.255 168.257 290.105 167.926 289.059 167.368C288.013 166.811 287.096 166.04 286.365 165.105L283.493 168.139C286.166 169.117 288.689 170.468 290.987 172.152L292.436 168.34Z" fill="#EAD4AF"/>
<path d="M281.318 150.382C281.511 150.621 281.761 150.809 282.044 150.927C282.328 151.045 282.636 151.09 282.941 151.059C283.248 151.017 283.538 150.896 283.784 150.707C284.029 150.518 284.221 150.267 284.34 149.981C284.19 147.874 284.065 145.767 283.915 143.66C282.862 143.955 281.847 144.376 280.893 144.914C280.381 146.435 280.381 148.083 280.893 149.604C281.009 149.877 281.151 150.138 281.318 150.382V150.382Z" fill="#CC3131"/>
<path d="M266.505 153.342C266.281 153.041 265.781 153.116 265.431 153.342L262.733 153.994C262.159 156.326 261.609 158.659 261.035 161.016H264.632C265.281 158.759 265.906 156.477 266.53 154.194C266.597 154.061 266.629 153.914 266.625 153.765C266.62 153.616 266.579 153.471 266.505 153.342V153.342Z" fill="#14B661"/>
<path d="M228.71 174.058C231.544 173.869 234.388 174.2 237.103 175.036C237.378 173.481 237.678 171.926 237.978 170.371C235.485 170.596 232.977 170.596 230.484 170.371C229.884 171.701 229.285 172.879 228.71 174.058Z" fill="#14B661"/>
<path d="M196.186 206.871C191.643 209.969 191.224 216.903 187.636 221.076C184.048 225.249 177.97 226.267 175.318 230.903C172.666 235.539 175.083 242.046 175.42 247.725C175.251 253.229 174.283 258.679 172.548 263.903C171.297 269.187 170.823 275.073 173.727 279.402C175.5 281.723 177.887 283.496 180.615 284.52C183.343 285.545 186.303 285.779 189.158 285.197C194.961 283.904 200.477 281.548 205.43 278.249C220.114 270.249 234.118 261.052 247.302 250.75C250.388 248.599 252.983 245.815 254.915 242.581C255.824 240.98 256.256 239.151 256.16 237.311C256.064 235.471 255.444 233.698 254.373 232.202C252.407 230.036 249.225 229.49 247.007 227.591C242.983 224.177 242.56 218.476 237.527 215.673C233.174 213.816 228.479 212.902 223.749 212.993C220.806 212.863 217.9 212.291 215.126 211.295C212.399 210.172 210.098 208.129 207.225 206.876C205.532 205.947 203.635 205.46 201.706 205.459C199.777 205.458 197.879 205.944 196.186 206.871V206.871Z" fill="#D2923D"/>
<g style="mix-blend-mode:screen" opacity="0.32">
<path d="M193.295 246.823C201.498 243.61 199.462 238.177 202.795 231.658C204.582 227.858 207.417 224.653 210.963 222.422C214.631 219.933 219.061 218.835 223.461 219.324C228.453 220.233 232.247 223.829 237.094 224.942C239.53 225.445 242.061 225.201 244.358 224.241C242.427 221.144 241.184 217.623 237.578 215.596C233.225 213.739 228.53 212.825 223.801 212.916C220.858 212.786 217.951 212.214 215.177 211.218C212.451 210.095 210.15 208.053 207.276 206.799C205.58 205.891 203.684 205.424 201.762 205.441C199.84 205.458 197.952 205.957 196.271 206.894C191.728 209.992 191.309 216.926 187.721 221.099C184.133 225.273 178.056 226.29 175.403 230.926C172.751 235.563 174.793 241.089 175.385 246.379C181.075 248.834 187.49 248.993 193.295 246.823V246.823Z" fill="#A24B27"/>
</g>
<g style="mix-blend-mode:multiply" opacity="0.55">
<path d="M181.33 255.773C186.372 254.327 194.668 252.475 194.659 246.125C191.635 249.208 187.704 251.234 183.446 251.905C180.556 252.085 177.702 251.181 175.438 249.37C175.304 252.326 174.84 255.258 174.055 258.111C176.397 257.492 178.824 256.44 181.33 255.773Z" fill="#B9866E"/>
</g>
<g style="mix-blend-mode:multiply" opacity="0.55">
<path d="M200.773 225.256C202.024 224.393 203.331 223.616 204.687 222.931C207.823 221.968 210.877 220.753 213.818 219.298C216.092 217.46 217.793 215.005 218.72 212.226C217.469 212.013 216.24 211.685 215.048 211.245C214.132 210.84 213.246 210.37 212.397 209.838V209.838C211.66 212.156 210.597 214.357 209.241 216.374C206.891 219.754 201.725 221.441 200.773 225.256Z" fill="#B9866E"/>
</g>
<g style="mix-blend-mode:multiply" opacity="0.55">
<path d="M228.348 241.706C223.811 243.531 218.54 241.849 216.514 248.231C215.864 250.901 214.494 253.341 212.555 255.282C212.196 255.611 211.78 255.925 211.392 256.246C217.259 256.934 221.123 249.554 225.338 246.095C227.865 244.461 230.098 242.409 231.94 240.025C230.774 240.649 229.575 241.211 228.348 241.706V241.706Z" fill="#B9866E"/>
</g>
<g style="mix-blend-mode:multiply" opacity="0.55">
<path d="M221.731 227.092C221.671 227.278 221.62 227.467 221.581 227.659C223.826 226.813 226.155 226.213 228.528 225.871C233.35 225.007 237.739 222.53 240.98 218.844C240.041 217.505 238.818 216.39 237.401 215.579C235.399 214.548 233.238 213.867 231.008 213.567C230.819 216.063 229.902 218.448 228.371 220.424C226.461 222.95 223.134 224.43 221.731 227.092Z" fill="#B9866E"/>
</g>
<g style="mix-blend-mode:multiply" opacity="0.55">
<path d="M254.205 232.157C253.94 237.371 250.845 241.737 243.42 243.275C235.994 244.813 235.374 252.391 229.167 255.379C222.959 258.366 216.763 256.528 212.949 262.007C211.712 263.794 210.065 265.256 208.148 266.271C206.232 267.286 204.1 267.824 201.933 267.84C197.614 267.93 196.12 273.787 193.046 275.911C191.2 277.193 189.196 278.23 187.085 278.995C179.978 281.499 175.402 278.454 171.748 273.529C171.911 275.653 172.58 277.707 173.698 279.517C175.487 281.822 177.884 283.576 180.617 284.58C183.351 285.585 186.31 285.799 189.159 285.198C194.962 283.904 200.478 281.549 205.431 278.25C220.115 270.25 234.119 261.052 247.303 250.751C250.388 248.6 252.983 245.815 254.916 242.582C255.825 240.981 256.257 239.152 256.161 237.312C256.065 235.472 255.444 233.699 254.374 232.203L254.205 232.157Z" fill="#B9866E"/>
</g>
<path d="M247.174 245.766C246.743 247.959 246.567 249.764 244.522 250.858C242.338 252.045 239.776 252.32 237.392 251.625C237.063 254.574 237.594 256.447 234.461 257.765C232.278 258.684 229.915 259.091 227.551 258.955C226.987 261.082 227.232 262.211 225.18 263.332C222.618 264.795 219.636 265.338 216.726 264.869C214.582 270.097 210.435 273.3 205.976 271.866C205.578 273.508 204.55 274.925 203.115 275.808C200.343 277.359 197.134 277.934 194 277.442C190.866 282.07 188.859 284.389 183.711 284.41L222.746 318.197C238.331 314.474 252.655 306.671 264.259 295.582L253.184 243.637C251.517 245.078 249.372 245.838 247.174 245.766V245.766Z" fill="#BE4C1B"/>
<path d="M194.033 281.642C201.597 294.755 211.928 306.047 224.301 314.725C224.301 314.725 210.419 287.145 194.033 281.642Z" fill="#8F3300"/>
<path d="M207.173 275.557C207.173 275.557 214.501 298.318 233.176 311.722C233.176 311.722 221.797 282.684 207.173 275.557Z" fill="#8F3300"/>
<path d="M218.675 268.579C222.642 283.266 230.652 296.532 241.787 306.856C241.787 306.856 231.178 277.083 218.675 268.579Z" fill="#8F3300"/>
<path d="M229.598 262.752C229.598 262.752 233.737 287.273 248.331 302.258C248.331 302.258 240.94 273.467 229.598 262.752Z" fill="#8F3300"/>
<path d="M240.017 257.459C241.153 271.963 245.896 285.949 253.812 298.135C253.812 298.135 250.396 271.803 240.017 257.459Z" fill="#8F3300"/>
<path d="M248.845 250.981C249.196 265.937 252.573 280.664 258.77 294.267C258.77 294.267 257.679 264.305 248.845 250.981Z" fill="#8F3300"/>
<g style="mix-blend-mode:multiply" opacity="0.5">
<path d="M238.402 289.643C230.412 291.368 222.085 290.513 214.61 287.202C210.691 285.668 206.803 284.022 202.995 282.184C200.764 281.132 198.644 279.776 196.473 278.497C193.549 282.787 191.736 284.945 186.871 285.042L223.258 316.268C237.72 312.774 251.004 305.502 261.763 295.188L258.111 278.178C252.548 283.525 245.789 287.457 238.402 289.643Z" fill="#9E5838"/>
</g>
<g style="mix-blend-mode:screen" opacity="0.32">
<path d="M224.451 216.278C224.19 216.209 223.917 216.196 223.65 216.24C223.383 216.284 223.128 216.383 222.902 216.532L213.353 221.056C211.912 221.65 210.561 222.444 209.339 223.415C208.093 224.418 207.284 225.868 207.086 227.459C206.998 228.202 207.153 228.953 207.526 229.601C207.9 230.248 208.472 230.756 209.157 231.05C209.833 231.168 210.527 231.101 211.168 230.855C211.808 230.609 212.37 230.194 212.795 229.653C213.676 228.567 214.395 227.357 214.928 226.063C215.487 224.764 216.312 223.598 217.348 222.64C219.566 220.895 223.044 221.126 224.503 218.479C225.171 217.898 225.269 216.618 224.451 216.278Z" fill="#B27B60"/>
</g>
<g style="mix-blend-mode:screen" opacity="0.32">
<path d="M178.872 237.229L178.105 241.488C177.854 242.399 177.871 243.363 178.154 244.265C178.617 244.958 179.331 245.442 180.144 245.614C180.957 245.786 181.805 245.632 182.507 245.185C185.017 243.821 186.043 240.755 187.394 238.17C188.894 235.412 191.005 233.036 193.563 231.225C194.481 230.667 195.336 230.009 196.11 229.263C196.509 228.884 196.817 228.418 197.011 227.902C197.206 227.387 197.282 226.833 197.234 226.284C197.067 225.622 196.689 225.033 196.158 224.606C195.627 224.18 194.972 223.938 194.293 223.919C192.923 223.9 191.568 224.203 190.337 224.805C188.267 225.578 186.282 226.564 184.414 227.747C182.558 228.967 181.063 230.665 180.084 232.663C179.491 234.128 179.084 235.662 178.872 237.229V237.229Z" fill="#B27B60"/>
</g>
<g style="mix-blend-mode:screen" opacity="0.32">
<path d="M233.185 236.591C232.075 237.222 231.028 237.959 230.06 238.793C227.703 240.512 224.863 241.434 221.951 241.424C224.653 239.258 226.978 236.657 228.833 233.728C230.695 230.784 233.481 228.547 236.751 227.371C237.613 227.131 238.518 227.093 239.397 227.259C240.276 227.426 241.105 227.792 241.82 228.331C242.501 228.953 242.956 229.786 243.114 230.697C243.272 231.607 243.124 232.545 242.693 233.362C242.178 234.061 241.516 234.637 240.753 235.047C239.99 235.458 239.146 235.693 238.282 235.737C236.548 235.75 234.828 236.038 233.185 236.591V236.591Z" fill="#B27B60"/>
</g>
<g style="mix-blend-mode:screen" opacity="0.32">
<path d="M200.694 246.979C200.972 247.472 201.375 247.882 201.863 248.167C202.351 248.452 202.905 248.602 203.469 248.602C204.615 248.594 205.739 248.287 206.73 247.712C210.875 245.083 214.335 241.5 216.825 237.26C217.404 236.443 217.977 235.199 217.278 234.526C217.055 234.335 216.792 234.196 216.509 234.12C216.225 234.045 215.928 234.034 215.64 234.089C210.488 235.003 205.797 237.647 202.337 241.587C201.637 242.348 201.076 243.226 200.68 244.182C200.497 244.625 200.404 245.101 200.406 245.582C200.408 246.062 200.506 246.537 200.694 246.979V246.979Z" fill="#B27B60"/>
</g>
<g style="mix-blend-mode:screen" opacity="0.32">
<path d="M186.789 259.935C185.55 260.738 184.228 261.403 182.845 261.918C181.016 262.33 179.253 262.993 177.604 263.888C176.82 264.464 176.202 265.237 175.811 266.13C175.42 267.022 175.27 268.003 175.377 268.972C175.513 269.915 175.905 270.804 176.51 271.539C177.115 272.274 177.91 272.827 178.808 273.138C179.828 273.401 180.892 273.435 181.927 273.24C182.962 273.044 183.941 272.622 184.795 272.005C186.509 270.735 188.066 269.265 189.436 267.627C190.805 265.973 192.474 264.596 194.355 263.567C195.876 262.85 197.646 262.563 199.118 261.803C199.909 261.488 200.602 260.97 201.13 260.301C201.658 259.632 202.002 258.835 202.127 257.991C202.12 257.299 201.911 256.625 201.525 256.052C201.139 255.479 200.594 255.033 199.957 254.769C198.653 254.279 197.218 254.272 195.909 254.75C194.566 255.269 193.289 255.948 192.106 256.77C190.374 257.826 188.578 258.895 186.789 259.935Z" fill="#B27B60"/>
</g>
<path d="M205.186 212.739L204.621 212.588C204.332 212.332 203.988 212.146 203.615 212.047C203.242 211.947 202.852 211.936 202.474 212.014C201.726 212.217 201.031 212.58 200.437 213.079C199.34 213.904 198.396 214.916 197.647 216.069C197.32 216.469 197.104 216.95 197.021 217.461C196.939 217.972 196.993 218.496 197.177 218.98C197.339 219.219 197.555 219.415 197.809 219.551C198.062 219.688 198.345 219.761 198.633 219.764C199.201 219.782 199.767 219.674 200.289 219.448C201.77 218.925 203.119 218.083 204.241 216.981C205.01 216.289 205.524 215.356 205.7 214.334C205.687 213.359 206.127 212.839 205.186 212.739Z" fill="#652700"/>
<path d="M176.734 239.36C177.581 239.587 178.502 239.195 179.227 238.63C180.033 238.087 180.716 237.38 181.23 236.553C181.503 236.126 181.686 235.648 181.767 235.147C181.848 234.646 181.825 234.134 181.7 233.642C181.574 233.178 181.297 232.769 180.914 232.48C180.531 232.19 180.063 232.037 179.584 232.044C179.544 232.007 179.497 231.978 179.446 231.96C179.395 231.941 179.341 231.933 179.287 231.935C179.233 231.938 179.18 231.951 179.131 231.974C179.082 231.997 179.038 232.03 179.002 232.071L177.985 232.254C177.107 232.787 176.407 233.571 175.976 234.505C175.544 235.44 175.401 236.482 175.565 237.499C175.588 237.883 175.707 238.255 175.912 238.58C176.116 238.906 176.399 239.174 176.734 239.36Z" fill="#B27B60"/>
<path d="M228.195 231.461C227.339 231.024 226.389 230.806 225.43 230.824C224.47 230.843 223.529 231.099 222.691 231.57C222.061 231.904 221.531 232.402 221.159 233.013C220.736 233.571 220.55 234.274 220.639 234.969C220.78 235.53 221.101 236.028 221.554 236.385C222.006 236.742 222.564 236.939 223.14 236.943C224.297 236.932 225.43 236.605 226.416 235.997C226.961 235.794 227.455 235.473 227.863 235.057C228.271 234.642 228.584 234.141 228.779 233.591C229.198 232.124 229.17 232.117 228.195 231.461Z" fill="#652700"/>
<path d="M207.93 226.44C207.18 226.252 206.39 226.31 205.675 226.605C204.96 226.901 204.358 227.417 203.956 228.081C203.15 229.448 202.688 230.993 202.61 232.58C202.499 233.017 202.489 233.473 202.582 233.914C202.675 234.355 202.868 234.768 203.145 235.122C203.95 235.853 205.211 235.431 206.241 234.856C207.915 233.777 209.24 232.232 210.053 230.409C210.353 229.919 210.516 229.357 210.525 228.782C210.534 228.207 210.388 227.641 210.103 227.142C209.282 226.133 209.032 226.734 207.93 226.44Z" fill="#652700"/>
<path d="M179.892 266.322C180.426 265.106 180.769 263.815 180.908 262.493C180.993 262.204 181.015 261.9 180.975 261.602C180.934 261.303 180.831 261.016 180.673 260.76C180.548 260.642 180.398 260.554 180.235 260.501C180.072 260.447 179.9 260.431 179.73 260.452C179.559 260.473 179.396 260.531 179.251 260.623C179.106 260.715 178.982 260.837 178.89 260.982L178.236 261.05L178.095 261.013L177.909 261.145C177.138 261.246 176.432 261.631 175.928 262.225C175.432 262.826 175.021 263.493 174.707 264.207C174.388 264.71 174.18 265.276 174.096 265.866C174.013 266.456 174.055 267.058 174.221 267.63C174.504 268.179 174.971 268.609 175.54 268.845C176.109 269.08 176.742 269.105 177.328 268.916C177.914 268.69 178.445 268.342 178.887 267.895C179.329 267.447 179.671 266.911 179.892 266.322V266.322Z" fill="#652700"/>
<path d="M192.658 272.011C193.329 272.299 194.061 272.409 194.786 272.332C195.51 272.254 196.203 271.992 196.799 271.569C198.007 270.7 199.051 269.622 199.882 268.385C200.208 268.028 200.463 267.611 200.631 267.158C200.704 266.936 200.715 266.698 200.663 266.471C200.612 266.243 200.5 266.034 200.339 265.865C200.177 265.727 199.987 265.627 199.782 265.572C199.577 265.517 199.362 265.509 199.153 265.548C198.733 265.648 198.319 265.841 197.907 265.913C196.981 265.898 196.061 265.764 195.169 265.515C194.376 265.444 193.58 265.623 192.893 266.027C192.205 266.431 191.66 267.041 191.334 267.77C190.999 268.517 190.949 269.362 191.193 270.144C191.437 270.926 191.959 271.59 192.658 272.011V272.011Z" fill="#652700"/>
<path d="M210.951 252.666C211.405 252.023 211.782 251.329 212.075 250.598C212.188 250.39 212.25 250.158 212.255 249.922C212.26 249.685 212.208 249.451 212.103 249.239C211.721 248.742 210.945 248.929 210.354 249.105L207.445 250.15C206.727 250.369 206.042 250.687 205.41 251.094C204.775 251.517 204.33 252.172 204.169 252.919C204.102 253.446 204.216 253.981 204.491 254.435C204.766 254.889 205.186 255.236 205.683 255.419C206.202 255.593 206.754 255.646 207.296 255.576C207.839 255.505 208.359 255.312 208.816 255.011C209.679 254.383 210.406 253.585 210.951 252.666V252.666Z" fill="#652700"/>
<path d="M226.973 252.241C226.804 251.641 226.409 251.129 225.871 250.816C225.334 250.502 224.696 250.41 224.092 250.56C223.465 250.741 222.889 251.069 222.413 251.518C221.936 251.966 221.572 252.521 221.351 253.138C220.897 254.345 220.729 255.641 220.861 256.924C220.836 257.132 220.859 257.342 220.927 257.539C220.995 257.736 221.107 257.915 221.254 258.062C221.479 258.186 221.733 258.247 221.989 258.241C222.246 258.235 222.496 258.161 222.715 258.027C224.291 257.344 225.596 256.154 226.425 254.646C226.888 253.936 227.082 253.083 226.973 252.241Z" fill="#652700"/>
<path d="M245.685 238.839C246.287 238.633 246.833 238.291 247.281 237.838C247.744 237.359 248.008 236.723 248.022 236.056C248.037 235.39 247.799 234.743 247.358 234.245C246.974 233.914 246.521 233.674 246.032 233.543C245.543 233.412 245.031 233.394 244.534 233.49C243.238 233.667 242.001 234.148 240.924 234.894C240.114 235.41 239.481 236.163 239.112 237.052C238.928 237.475 238.878 237.946 238.968 238.399C239.059 238.852 239.286 239.267 239.618 239.586C239.995 239.818 240.418 239.96 240.857 240.004C241.296 240.048 241.739 239.991 242.153 239.838C243.359 239.617 244.541 239.283 245.685 238.839V238.839Z" fill="#652700"/>
<path d="M192.232 239.433C191.602 239.24 190.94 239.176 190.285 239.247C189.191 239.582 188.219 240.233 187.49 241.117C186.76 242.002 186.305 243.082 186.181 244.223C186.1 244.635 186.124 245.061 186.25 245.461C186.377 245.861 186.602 246.223 186.905 246.512C187.158 246.698 187.455 246.818 187.766 246.858C188.078 246.899 188.395 246.86 188.688 246.746C189.297 246.519 189.848 246.158 190.299 245.689C191.074 244.948 191.745 244.106 192.295 243.185C192.64 242.64 192.883 242.036 193.01 241.402C193.061 241.09 193.049 240.772 192.975 240.465C192.9 240.158 192.765 239.869 192.577 239.616C192.16 239.019 192.761 239.149 192.232 239.433Z" fill="#652700"/>
<path d="M177.863 239.662C179.213 239.288 180.445 238.572 181.44 237.581C181.919 237.064 182.264 236.437 182.445 235.754C182.626 235.072 182.638 234.356 182.479 233.668C182.284 233.081 181.922 232.563 181.438 232.18C180.953 231.797 180.368 231.565 179.754 231.512L179.5 231.444C178.853 231.653 178.266 232.016 177.79 232.502C177.313 232.988 176.96 233.583 176.762 234.235C176.372 235.546 176.184 236.909 176.204 238.277C176.16 238.529 176.174 238.787 176.245 239.033C176.317 239.278 176.443 239.504 176.614 239.693C176.942 240.054 177.385 239.868 177.863 239.662Z" fill="#652700"/>
<path d="M139.348 211.647C136.674 210.87 134.001 213.022 131.232 212.994C128.464 212.965 126.016 210.906 123.376 211.396C120.736 211.885 119.06 215.07 117.004 217.058C114.813 218.889 112.359 220.377 109.726 221.472C107.225 222.772 104.711 224.685 103.913 227.432C103.602 228.998 103.728 230.619 104.279 232.117C104.829 233.615 105.782 234.931 107.031 235.919C109.555 237.881 112.427 239.345 115.495 240.232C123.715 243.394 132.188 245.846 140.823 247.563C142.694 247.998 144.638 248.002 146.511 247.574C147.441 247.351 148.284 246.853 148.93 246.145C149.577 245.437 149.998 244.552 150.139 243.602C150.245 241.997 149.333 240.538 149.245 238.941C149.103 236.108 151.023 233.925 150.251 230.979C149.435 228.6 148.15 226.411 146.47 224.543C145.511 223.325 144.726 221.978 144.139 220.541C143.601 219.065 143.558 217.49 143.102 215.992C142.874 215.016 142.413 214.111 141.759 213.354C141.105 212.597 140.278 212.011 139.348 211.647V211.647Z" fill="#993A12"/>
<g style="mix-blend-mode:screen" opacity="0.32">
<path d="M123.441 224.025C127.491 226.159 128.838 223.531 132.435 222.613C134.48 222.027 136.652 222.067 138.674 222.727C140.877 223.368 142.792 224.755 144.093 226.652C145.411 228.972 145.478 231.763 146.737 234.043C147.377 235.186 148.335 236.118 149.493 236.724C149.954 234.857 150.802 233.12 150.221 230.959C149.406 228.58 148.12 226.391 146.441 224.523C145.481 223.305 144.696 221.958 144.11 220.521C143.571 219.045 143.528 217.47 143.073 215.972C142.842 215.006 142.383 214.11 141.734 213.36C141.086 212.61 140.266 212.028 139.346 211.663C136.672 210.886 133.999 213.038 131.23 213.01C128.462 212.981 126.014 210.922 123.374 211.412C120.734 211.901 119.297 214.599 117.493 216.635C118.48 219.761 120.603 222.4 123.441 224.025V224.025Z" fill="#A24B27"/>
</g>
<g style="mix-blend-mode:multiply" opacity="0.55">
<path d="M115.942 222.279C118.246 223.818 121.85 226.541 124.258 224.323C121.98 224.157 119.819 223.246 118.107 221.729C117.031 220.626 116.401 219.162 116.337 217.62C115.13 218.61 113.807 219.448 112.396 220.113C113.606 220.865 114.797 221.518 115.942 222.279Z" fill="#8C3A12"/>
</g>
<g style="mix-blend-mode:multiply" opacity="0.55">
<path d="M134.167 219.613C134.919 219.822 135.656 220.078 136.375 220.379C137.781 221.302 139.258 222.112 140.791 222.802C142.219 223.066 143.693 222.899 145.026 222.321C144.69 221.768 144.397 221.19 144.149 220.591C143.978 220.086 143.839 219.571 143.731 219.049V219.049C142.629 219.528 141.466 219.848 140.275 220.001C138.287 220.169 135.894 218.7 134.167 219.613Z" fill="#8C3A12"/>
</g>
<g style="mix-blend-mode:multiply" opacity="0.55">
<path d="M137.568 236.453C135.335 235.247 134.101 232.517 130.981 233.997C129.74 234.68 128.33 234.99 126.919 234.888L126.142 234.79C127.918 237.443 132.081 236.386 134.857 236.869C136.337 237.341 137.89 237.538 139.441 237.452C138.794 237.164 138.168 236.83 137.568 236.453V236.453Z" fill="#8C3A12"/>
</g>
<g style="mix-blend-mode:multiply" opacity="0.55">
<path d="M140.667 228.643L140.381 228.736C141.487 229.363 142.522 230.107 143.469 230.958C145.397 232.577 147.819 233.485 150.332 233.529C150.506 232.676 150.485 231.793 150.271 230.949C149.959 229.789 149.461 228.687 148.797 227.687C147.835 228.476 146.648 228.937 145.408 229.004C143.849 229.097 142.165 228.267 140.667 228.643Z" fill="#8C3A12"/>
</g>
<path d="M150.139 243.602C148.127 245.369 145.428 245.689 142.261 243.199C139.094 240.709 136.008 243.196 132.778 241.718C129.727 240.359 128.003 237.033 124.552 237.435C123.41 237.577 122.251 237.431 121.179 237.013C120.107 236.594 119.155 235.915 118.408 235.036C116.88 233.223 114.058 234.774 112.064 234.229C110.906 233.924 109.793 233.467 108.754 232.869C105.275 230.809 104.908 227.85 105.608 224.605C104.811 225.427 104.22 226.428 103.885 227.525C103.574 229.091 103.701 230.713 104.251 232.211C104.802 233.709 105.754 235.024 107.003 236.012C109.528 237.975 112.4 239.438 115.468 240.325C123.687 243.487 132.161 245.94 140.796 247.656C142.666 248.092 144.611 248.096 146.483 247.668C147.432 247.443 148.29 246.934 148.943 246.207C149.596 245.481 150.014 244.572 150.139 243.602Z" fill="#792C12"/>
<path d="M142.629 245.64C141.664 246.262 140.866 246.84 139.792 246.412C138.552 245.92 137.551 244.963 137.002 243.744C135.789 244.673 135.254 245.592 133.649 244.773C132.51 244.21 131.511 243.397 130.726 242.395C129.684 242.861 129.37 243.436 128.2 242.996C126.715 242.458 125.462 241.417 124.656 240.054C121.852 241.072 119.148 240.534 118.158 238.159C117.768 238.367 117.341 238.494 116.902 238.532C116.462 238.571 116.019 238.521 115.6 238.384C114.004 237.784 112.654 236.667 111.762 235.21C108.83 235.581 107.202 235.585 105.393 233.445L105.512 262.748C112.546 267.997 120.913 271.147 129.65 271.837L145.628 247.413C145.037 247.33 144.467 247.131 143.953 246.827C143.438 246.523 142.988 246.119 142.629 245.64V245.64Z" fill="#BE4C1B"/>
<path d="M110.155 236.704C107.494 244.855 106.575 253.478 107.458 262.009C107.458 262.009 113.708 245.571 110.155 236.704Z" fill="#8F3300"/>
<path d="M117.159 239.942C117.159 239.942 110.637 251.523 111.866 264.624C111.866 264.624 119.533 248.706 117.159 239.942Z" fill="#8F3300"/>
<path d="M123.92 242.177C119.463 249.486 117.047 257.864 116.924 266.433C116.924 266.433 125.021 250.553 123.92 242.177Z" fill="#8F3300"/>
<path d="M130.03 244.588C130.03 244.588 121.918 255.482 121.173 267.507C121.173 267.507 129.896 253.309 130.03 244.588Z" fill="#8F3300"/>
<path d="M135.71 246.961C130.395 253.046 126.65 260.349 124.804 268.228C124.804 268.228 133.906 256.651 135.71 246.961Z" fill="#8F3300"/>
<path d="M141.269 248.251C135.55 254.169 131.079 261.184 128.123 268.876C128.123 268.876 139.453 256.887 141.269 248.251Z" fill="#8F3300"/>
<g style="mix-blend-mode:multiply" opacity="0.5">
<path d="M122.651 258.358C119.07 255.567 116.451 251.72 115.16 247.357C114.392 245.14 113.676 242.897 113.062 240.618C112.713 239.295 112.499 237.925 112.254 236.551C109.534 236.901 108.019 236.902 106.335 234.924L106.443 262.139C112.983 267.01 120.757 269.934 128.876 270.574L134.229 262.388C130.092 262.051 126.107 260.665 122.651 258.358V258.358Z" fill="#9E5838"/>
</g>
<g style="mix-blend-mode:screen" opacity="0.32">
<path d="M145.596 225.985C145.46 225.736 145.237 225.546 144.97 225.453L140.032 223.207C139.322 222.838 138.563 222.573 137.778 222.418C137.387 222.337 136.983 222.338 136.592 222.423C136.202 222.507 135.833 222.671 135.509 222.906C135.19 223.149 134.96 223.491 134.855 223.879C134.751 224.267 134.778 224.679 134.932 225.05C135.117 225.351 135.376 225.599 135.686 225.769C135.995 225.938 136.343 226.025 136.695 226.018C137.403 225.996 138.104 225.867 138.774 225.636C139.445 225.406 140.16 225.336 140.863 225.432C142.262 225.707 143.382 227.176 144.799 226.936C145.267 226.801 145.749 226.426 145.596 225.985Z" fill="#B27B60"/>
</g>
<g style="mix-blend-mode:screen" opacity="0.32">
<path d="M122.186 214.95L120.302 216.086C119.859 216.286 119.494 216.626 119.261 217.054C118.903 217.85 119.584 218.713 120.388 219.106C121.854 219.396 123.373 219.252 124.76 218.692C126.321 218.352 127.94 218.386 129.485 218.791C129.994 218.964 130.519 219.085 131.051 219.152C131.327 219.175 131.603 219.136 131.861 219.037C132.119 218.938 132.352 218.782 132.542 218.581C132.728 218.277 132.817 217.923 132.795 217.567C132.774 217.211 132.644 216.871 132.422 216.592C131.963 216.051 131.39 215.619 130.745 215.327C129.753 214.762 128.702 214.309 127.612 213.973C126.519 213.64 125.354 213.62 124.25 213.918C123.52 214.169 122.826 214.516 122.186 214.95V214.95Z" fill="#B27B60"/>
</g>
<g style="mix-blend-mode:screen" opacity="0.32">
<path d="M141.16 236.603C140.543 236.378 139.905 236.215 139.255 236.118C137.749 235.745 136.403 234.893 135.42 233.688C137.155 234.021 138.934 234.05 140.679 233.774C142.435 233.492 144.233 233.835 145.762 234.745C146.159 235.011 146.491 235.362 146.735 235.774C146.979 236.186 147.127 236.647 147.17 237.124C147.196 237.604 147.059 238.078 146.781 238.469C146.503 238.86 146.101 239.144 145.641 239.276C145.194 239.312 144.744 239.245 144.326 239.08C143.909 238.914 143.534 238.655 143.232 238.322C142.624 237.655 141.927 237.077 141.16 236.603V236.603Z" fill="#B27B60"/>
</g>
<g style="mix-blend-mode:screen" opacity="0.32">
<path d="M125.972 227.082C125.891 227.367 125.881 227.668 125.943 227.958C126.004 228.248 126.136 228.518 126.326 228.745C126.726 229.202 127.238 229.546 127.811 229.743C130.212 230.506 132.764 230.653 135.236 230.169C135.757 230.122 136.412 229.915 136.429 229.399C136.412 229.242 136.36 229.09 136.276 228.956C136.193 228.822 136.08 228.709 135.946 228.626C133.873 226.871 131.254 225.897 128.542 225.872C128.042 225.839 127.54 225.908 127.066 226.072C126.824 226.155 126.601 226.287 126.413 226.461C126.224 226.635 126.074 226.846 125.972 227.082V227.082Z" fill="#B27B60"/>
</g>
<g style="mix-blend-mode:screen" opacity="0.32">
<path d="M116.183 225.983C115.424 225.761 114.689 225.462 113.991 225.089C113.208 224.487 112.35 223.992 111.438 223.615C110.941 223.488 110.418 223.501 109.928 223.654C109.439 223.808 109.001 224.095 108.664 224.483C108.327 224.872 108.105 225.347 108.022 225.855C107.938 226.363 107.998 226.885 108.192 227.361C108.436 227.864 108.785 228.308 109.216 228.662C109.647 229.016 110.15 229.271 110.69 229.41C111.779 229.686 112.897 229.828 114.021 229.834C115.147 229.804 116.267 230.001 117.316 230.415C118.124 230.776 118.807 231.365 119.632 231.729C120.023 231.943 120.466 232.045 120.912 232.025C121.358 232.005 121.789 231.862 122.16 231.613C122.427 231.355 122.615 231.026 122.7 230.664C122.786 230.302 122.766 229.922 122.644 229.571C122.385 228.869 121.889 228.279 121.243 227.904C120.599 227.542 119.916 227.255 119.208 227.047L116.183 225.983Z" fill="#B27B60"/>
</g>
<path d="M140.282 217.138L140.193 216.819C140.185 216.62 140.131 216.426 140.035 216.251C139.94 216.076 139.806 215.925 139.644 215.811C139.316 215.586 138.947 215.43 138.558 215.349C137.89 215.204 137.203 215.171 136.524 215.252C135.966 215.327 135.341 215.555 135.21 216.088C135.183 216.235 135.189 216.386 135.226 216.531C135.263 216.675 135.332 216.81 135.426 216.925C135.617 217.154 135.85 217.343 136.113 217.482C136.813 217.864 137.587 218.089 138.382 218.142C138.878 218.223 139.386 218.114 139.807 217.838C140.214 217.55 140.553 217.545 140.282 217.138Z" fill="#652700"/>
<path d="M120.691 214.792C120.806 215.002 120.971 215.18 121.171 215.31C121.371 215.44 121.6 215.518 121.838 215.537C122.316 215.671 122.818 215.701 123.309 215.627C123.555 215.591 123.791 215.503 124 215.367C124.209 215.232 124.386 215.053 124.52 214.842C124.649 214.632 124.709 214.386 124.691 214.14C124.673 213.893 124.578 213.659 124.419 213.47C124.418 213.413 124.396 213.358 124.356 213.317C124.316 213.276 124.262 213.251 124.205 213.249L123.782 212.904C123.287 212.734 122.753 212.721 122.251 212.865C121.749 213.01 121.303 213.305 120.972 213.711C120.844 213.857 120.752 214.03 120.703 214.218C120.654 214.406 120.65 214.603 120.691 214.792V214.792Z" fill="#B27B60"/>
<path d="M141.32 232.772C141.193 232.278 140.949 231.821 140.611 231.441C140.272 231.06 139.848 230.766 139.373 230.582C139.05 230.46 138.702 230.416 138.358 230.453C138.185 230.475 138.018 230.53 137.866 230.616C137.714 230.702 137.581 230.818 137.473 230.956C137.33 231.21 137.265 231.502 137.289 231.794C137.312 232.085 137.423 232.363 137.605 232.591C138.001 233.054 138.513 233.404 139.088 233.604C139.352 233.755 139.647 233.842 139.95 233.858C140.253 233.874 140.555 233.819 140.833 233.697C141.381 233.443 141.454 233.371 141.32 232.772Z" fill="#652700"/>
<path d="M136.206 222.866C136.032 222.505 135.747 222.21 135.393 222.025C135.039 221.84 134.635 221.775 134.241 221.839C133.456 221.981 132.719 222.322 132.102 222.829C131.902 222.946 131.73 223.105 131.598 223.294C131.465 223.484 131.375 223.701 131.334 223.929C131.343 224.496 131.923 224.877 132.466 225.044C133.435 225.331 134.466 225.327 135.433 225.033C135.986 224.86 136.58 224.499 136.668 223.928C136.756 223.356 136.423 223.443 136.206 222.866Z" fill="#652700"/>
<path d="M111.309 225.395C111.958 225.157 112.57 224.826 113.125 224.412C113.268 224.341 113.394 224.24 113.496 224.117C113.598 223.993 113.672 223.849 113.715 223.695C113.723 223.604 113.71 223.512 113.677 223.427C113.645 223.342 113.593 223.265 113.526 223.203C113.459 223.142 113.378 223.096 113.291 223.071C113.204 223.045 113.112 223.04 113.022 223.056L112.763 222.813L112.781 222.67L112.67 222.656C112.36 222.381 111.962 222.227 111.548 222.222C111.145 222.232 110.746 222.301 110.362 222.427C110.051 222.475 109.753 222.589 109.49 222.762C109.226 222.935 109.002 223.163 108.834 223.43C108.73 223.736 108.73 224.068 108.834 224.374C108.938 224.68 109.141 224.943 109.41 225.121C109.689 225.297 110.003 225.413 110.33 225.46C110.657 225.507 110.991 225.485 111.309 225.395Z" fill="#652700"/>
<path d="M113.498 232.696C113.614 233.074 113.824 233.416 114.108 233.69C114.392 233.964 114.74 234.161 115.121 234.262C115.886 234.442 116.676 234.487 117.457 234.397C117.702 234.396 117.944 234.344 118.169 234.245C118.282 234.199 118.381 234.122 118.454 234.022C118.526 233.923 118.569 233.805 118.578 233.682C118.578 233.566 118.551 233.451 118.5 233.346C118.449 233.242 118.375 233.15 118.284 233.078C118.092 232.941 117.878 232.849 117.688 232.695C117.498 232.541 117.184 231.838 116.899 231.413C116.66 231.066 116.316 230.805 115.918 230.67C115.52 230.535 115.089 230.532 114.689 230.663C114.28 230.801 113.934 231.083 113.715 231.456C113.496 231.83 113.419 232.27 113.498 232.696V232.696Z" fill="#652700"/>
<path d="M127.367 233.262C127.77 233.225 128.166 233.134 128.545 232.992C128.783 232.892 129.025 232.761 129.073 232.509C129.121 232.256 128.793 231.923 128.51 231.741L127.093 230.962C126.77 230.747 126.416 230.582 126.043 230.473C125.854 230.415 125.655 230.397 125.458 230.419C125.261 230.441 125.071 230.504 124.899 230.602C124.66 230.775 124.488 231.024 124.411 231.309C124.334 231.594 124.357 231.897 124.476 232.167C124.583 232.429 124.748 232.664 124.959 232.853C125.169 233.043 125.42 233.182 125.691 233.26C126.244 233.374 126.814 233.375 127.367 233.262V233.262Z" fill="#652700"/>
<path d="M133.117 239.673C133.281 239.38 133.334 239.036 133.266 238.707C133.198 238.377 133.014 238.083 132.747 237.879C132.469 237.689 132.15 237.567 131.817 237.525C131.483 237.482 131.144 237.52 130.828 237.635C130.202 237.885 129.648 238.287 129.214 238.805C129.125 238.876 129.052 238.966 129 239.069C128.948 239.171 128.918 239.283 128.913 239.398C128.938 239.532 128.998 239.656 129.087 239.759C129.176 239.861 129.291 239.938 129.42 239.98C130.223 240.389 131.142 240.506 132.021 240.311C132.237 240.285 132.446 240.215 132.634 240.106C132.823 239.996 132.987 239.849 133.117 239.673Z" fill="#652700"/>
<path d="M144.683 242.52C144.968 242.685 145.285 242.786 145.612 242.816C145.959 242.827 146.296 242.7 146.549 242.462C146.803 242.225 146.952 241.896 146.965 241.548C146.944 241.277 146.867 241.014 146.739 240.775C146.611 240.536 146.435 240.326 146.222 240.159C145.713 239.702 145.102 239.374 144.441 239.204C143.971 239.059 143.467 239.069 143.003 239.232C142.777 239.317 142.582 239.469 142.445 239.668C142.307 239.868 142.234 240.105 142.234 240.347C142.284 240.583 142.381 240.805 142.52 241.001C142.658 241.197 142.836 241.362 143.041 241.486C143.559 241.875 144.108 242.221 144.683 242.52V242.52Z" fill="#652700"/>
<path d="M125.904 221.102C125.772 220.78 125.572 220.49 125.319 220.251C124.836 219.939 124.272 219.777 123.698 219.785C123.124 219.792 122.565 219.969 122.091 220.294C121.904 220.408 121.748 220.566 121.637 220.756C121.526 220.945 121.463 221.158 121.454 221.378C121.477 221.544 121.538 221.703 121.632 221.841C121.726 221.98 121.852 222.094 121.998 222.175C122.273 222.285 122.568 222.339 122.864 222.334C123.405 222.396 123.951 222.373 124.484 222.265C124.809 222.218 125.12 222.103 125.397 221.928C125.534 221.839 125.653 221.723 125.745 221.588C125.836 221.452 125.9 221.299 125.932 221.138C126.061 220.88 126.237 221.145 125.904 221.102Z" fill="#652700"/>
<path d="M120.906 215.386C121.518 215.769 122.217 215.986 122.937 216.016C123.298 216.029 123.655 215.949 123.975 215.783C124.295 215.617 124.568 215.37 124.765 215.068C124.915 214.788 124.984 214.471 124.964 214.154C124.945 213.837 124.837 213.532 124.653 213.273L124.537 213.178C124.241 212.992 123.906 212.881 123.559 212.853C123.211 212.826 122.863 212.884 122.542 213.021C121.897 213.305 121.304 213.695 120.785 214.173C120.587 214.342 120.368 214.541 120.384 214.802C120.399 215.062 120.682 215.244 120.906 215.386Z" fill="#652700"/>
<path d="M142.698 339.491C137.215 344.48 127.698 344.046 122.828 338.657C117.959 333.269 116.586 327.189 122.068 322.2C127.551 317.211 132.627 318.408 137.496 323.797C142.365 329.185 148.18 334.502 142.698 339.491Z" fill="#FBD246"/>
<path d="M206.22 153.347C202.266 156.945 196.602 157.961 194.387 155.509C192.172 153.058 192.149 149.743 196.103 146.145C200.057 142.547 202.95 142.561 205.165 145.012C207.381 147.464 210.174 149.749 206.22 153.347Z" fill="#D56C48"/>
<path d="M169.791 246.635C170.649 249.414 169.848 252.446 168.137 252.979C166.425 253.511 164.793 252.761 163.935 249.982C163.076 247.202 163.747 245.775 165.458 245.243C167.17 244.711 168.932 243.855 169.791 246.635Z" fill="#D56C48"/>
<ellipse cx="179.043" cy="193.145" rx="3.21299" ry="3.22414" fill="#A73D22"/>
<path d="M132.39 185.311C130.881 186.923 127.358 184.975 125.531 183.143C123.705 181.31 121.393 177.7 124.055 175.029C126.717 172.358 130.279 176.055 132.106 177.888C133.932 179.72 133.899 183.699 132.39 185.311Z" fill="#E3AB5C"/>
<path d="M35.6035 146.731C35.0052 139.146 41.3587 131.669 48.8083 131.078C56.2578 130.486 62.0654 133.174 62.6637 140.759C63.2621 148.344 59.0884 151.727 51.6389 152.319C44.1893 152.91 36.2018 154.316 35.6035 146.731Z" fill="#F89945"/>
<path d="M275.411 39.1815C276.123 41.8507 274.346 44.9416 271.725 45.6465C269.103 46.3513 266.853 45.7762 266.14 43.107C265.427 40.4378 266.695 38.9533 269.316 38.2485C271.938 37.5436 274.698 36.5123 275.411 39.1815Z" fill="#FFCC00"/>
</svg>
