<svg width="374" height="400" viewBox="0 0 374 400" fill="none" xmlns="http://www.w3.org/2000/svg">
<path d="M14.2411 259.237C6.9872 159.937 84.016 62.0631 174.333 54.3171C264.65 46.5711 335.06 81.7573 342.314 181.057C349.568 280.356 298.968 324.637 208.651 332.383C118.334 340.129 21.495 358.536 14.2411 259.237Z" fill="#FBDF6A" fill-opacity="0.21"/>
<path d="M241.585 97.8338C240.959 89.254 247.614 80.7974 255.418 80.1281C263.222 79.4589 269.305 82.4991 269.932 91.0788C270.559 99.6586 266.187 103.485 258.383 104.154C250.579 104.823 242.212 106.414 241.585 97.8338Z" fill="#F89945"/>
<path d="M20.7822 67.6654C9.39806 57.0028 8.50911 35.344 18.7757 22.475C29.0423 9.60607 41.4026 4.39913 52.7867 15.0618C64.1708 25.7244 62.6399 37.6095 52.3733 50.4785C42.1068 63.3474 32.1663 78.3281 20.7822 67.6654Z" fill="#FBDF6A" fill-opacity="0.21"/>
<path d="M353.641 318.969C364.281 330.499 360.275 355.901 345.457 371.957C330.638 388.013 310.968 390.367 304.547 383.712C298.125 377.058 298.431 358.064 313.249 342.008C328.067 325.952 343 307.44 353.641 318.969Z" fill="#FBDF6A" fill-opacity="0.21"/>
<path d="M65.6639 261.036C59.9209 266.679 49.9507 266.188 44.8498 260.093C39.749 253.999 38.3108 247.121 44.0538 241.478C49.7968 235.835 55.114 237.19 60.2149 243.284C65.3157 249.379 71.407 255.393 65.6639 261.036Z" fill="#FBD246"/>
<path d="M194.164 227.3C194.164 227.3 190.573 239.605 192.108 243.382C193.642 247.159 234.77 277.075 266.768 281.456C267.24 281.517 267.719 281.469 268.173 281.316C268.628 281.163 269.048 280.907 269.407 280.567C272.047 278.065 278.323 271.787 279.198 267.741C280.318 262.604 255.872 268.866 194.164 227.3Z" fill="#F89945"/>
<path d="M203.008 242.356C206.087 246.012 210.489 244.192 213.167 247.614C215.845 251.036 216.353 252.021 220.016 251.303C220.694 251.17 221.294 251.904 221.725 252.305C225.157 255.409 227.066 257.145 232.391 257.679C233.51 257.663 234.599 258.07 235.47 258.831C238.142 260.926 241.421 261.904 244.705 261.585C244.937 261.574 245.169 261.62 245.382 261.719C247.675 262.904 247.891 264.857 250 266.526C253.247 269.047 256.249 271.35 259.989 268.496C260.593 268.149 261.29 268.043 261.959 268.196C265.838 268.93 265.299 273.57 270.363 271.534C272.98 270.516 273.78 273.02 275.165 274.188C276.948 272.313 278.325 270.033 279.198 267.511C280.322 262.403 255.802 268.63 193.912 227.3C192.973 230.58 192.243 233.926 191.726 237.315C193.635 241.688 200.361 239.251 203.008 242.356Z" fill="#D77124"/>
<path opacity="0.55" d="M243.44 269.262C240.412 264.647 236.463 257.992 236.12 252.006C222.084 245.498 208.494 237.939 195.45 229.384C195.45 229.384 192.594 239.416 194.076 242.609C195.262 245.151 220.607 262.992 245.578 272.104C244.782 271.184 244.095 270.248 243.44 269.262Z" fill="#CD4200"/>
<path d="M240.416 223.248C240.416 223.248 203.728 209.914 200.323 213.247C196.917 216.581 194.394 225.132 196.143 228.748C197.892 232.365 233.171 250.117 238.759 253.45C260.183 266.251 277.196 264.484 278.155 264.801C279.115 265.118 288.341 257.517 285.385 248.3C282.629 239.649 246.669 226.898 240.416 223.248Z" fill="#BE5B2A"/>
<path d="M242.039 245.842C239.015 241.367 236.616 236.437 234.917 231.211C234.078 227.676 233.495 224.077 233.172 220.445C225.447 217.829 213.366 213.912 206.089 212.712C202.397 220.595 202.088 228.411 206.584 236.043C217.831 242.909 234.547 251.792 238.61 253.142C240.417 253.742 244.558 254.958 249.424 256.475C246.732 253.124 244.264 249.571 242.039 245.842V245.842Z" fill="#AE4D25"/>
<path d="M225.823 225.463C231.571 228.163 235.932 232.43 241.032 236.263C245.294 239.257 249.338 242.6 253.128 246.262C256.102 249.345 261.079 258.945 265.455 255.878C268.737 253.545 272.697 253.745 276.395 253.195C279.541 252.668 282.748 252.736 285.872 253.395C286.09 251.662 285.926 249.897 285.394 248.245C282.651 239.646 246.872 226.897 240.631 223.247C240.631 223.247 204.112 209.914 200.722 213.247C199.823 214.179 199.059 215.252 198.457 216.43C208.103 217.63 216.824 221.164 225.823 225.463Z" fill="#953E25"/>
<path d="M194.629 227.305C197.365 227.26 200.099 227.497 202.793 228.014C205.648 228.773 211.91 235.072 219.675 237.347C227.441 239.622 224.97 244.14 234.071 246.498C243.172 248.856 243.97 253.456 247.07 253.852C250.17 254.248 257.721 258.881 259.225 260.217C260.729 261.552 272.562 259.969 275.509 262.377C278.456 264.784 282.952 263.3 283.06 265.114C283.167 266.928 283.06 271.017 278.087 269.797C273.115 268.576 270.199 269.286 268.603 267.307C267.006 265.328 253.132 266.433 252.565 263.778C251.997 261.124 247.178 258.997 242.804 257.562C238.43 256.128 237.478 253.902 232.061 252.615C226.643 251.329 220.611 245.591 217.972 245.674C215.332 245.756 208.149 243.332 207.137 240.876C206.124 238.419 200.798 234.527 198.926 234.659C197.053 234.791 194.368 228.542 194.629 227.305Z" fill="#7BB027"/>
<path d="M200.255 225.91C200.255 225.776 200.255 225.626 200.424 225.809C200.926 225.681 201.444 225.636 201.959 225.676V225.525C202.589 225.642 203.295 225.525 203.894 225.525C203.887 225.487 203.887 225.447 203.894 225.408C205.17 225.932 206.473 226.379 207.794 226.746C208.977 227.431 210.19 229.287 208.624 230.256C207.902 230.691 207.088 230.39 206.781 231.46C206.716 231.871 206.733 232.294 206.831 232.697C206.929 233.101 207.106 233.477 207.349 233.8C208.82 235.061 210.491 236.019 212.278 236.625C213.645 237.144 216.44 238.297 217.346 236.408C217.714 235.923 217.069 235.171 217.223 234.536C217.34 234.186 217.547 233.88 217.819 233.655C218.091 233.429 218.418 233.294 218.759 233.265C219.516 233.594 220.312 233.808 221.123 233.9C222.065 234.416 223.053 234.825 224.072 235.121C224.909 235.579 225.719 236.093 226.498 236.659C226.897 237.21 227.281 237.896 227.711 238.33C228.141 238.765 228.264 240.286 227.527 240.955C227.081 241.356 226.421 241.089 225.991 241.189C225.458 241.363 224.943 241.598 224.456 241.891C224.391 242.175 224.382 242.471 224.429 242.759C224.477 243.047 224.58 243.321 224.732 243.563C224.87 243.713 224.962 243.73 225.07 244.014C227.081 244.766 228.709 246.589 230.782 247.107C230.895 247.235 231.036 247.331 231.191 247.387C231.346 247.442 231.512 247.455 231.673 247.424C232.118 247.73 232.605 247.956 233.116 248.093V247.926C233.165 248.004 233.235 248.062 233.316 248.093C233.331 248.065 233.339 248.034 233.339 248.001C233.339 247.969 233.331 247.937 233.316 247.909C234.852 247.909 232.84 245.669 232.656 245.118C231.995 243.212 234.191 243.446 235.312 243.713C238.138 244.532 242.023 246.271 243.604 249.213C243.473 249.777 243.148 250.264 242.697 250.575C242.246 250.886 241.702 250.997 241.178 250.885C240.856 251.052 240.18 251.186 239.765 251.42C239.765 251.42 239.612 251.788 239.55 251.888C239.691 252.144 239.862 252.38 240.057 252.59C240.41 253.309 241.593 253.61 242.069 253.861C242.157 253.928 242.256 253.979 242.361 254.011C242.613 254.203 242.886 254.36 243.174 254.479V254.312C243.574 254.529 244.403 254.646 244.71 254.011C245.938 253.275 244.925 250.383 247.213 251.403C248.518 251.971 249.962 253.56 251.359 252.657C252.373 252.824 253.14 252.774 253.877 253.576C254.338 256.017 252.465 256.117 250.806 256.92L250.637 257.02C250.637 257.221 250.499 257.421 250.438 257.622C250.376 257.822 250.515 257.839 250.53 257.956C250.545 257.913 250.545 257.865 250.53 257.822C250.699 258.525 252.065 259.661 252.588 259.494C253.801 261.015 256.212 259.009 257.471 258.307C258.299 257.765 259.186 257.338 260.112 257.037C261.141 256.786 261.74 257.388 262.6 257.338C263.638 258.132 264.414 259.269 264.811 260.581C265.103 261.667 264.811 263.423 266.131 263.724C269.494 266.298 273.533 260.38 276.988 260.263C277.214 260.235 277.443 260.257 277.662 260.326C277.88 260.395 278.084 260.511 278.261 260.666C278.438 260.822 278.585 261.014 278.693 261.232C278.802 261.449 278.869 261.688 278.892 261.935C279.015 262.888 278.37 263.707 278.478 264.626C278.512 264.851 278.588 265.066 278.702 265.258C278.816 265.449 278.964 265.613 279.138 265.74C279.312 265.867 279.508 265.954 279.714 265.995C279.92 266.036 280.132 266.031 280.336 265.98C281.303 265.763 281.61 264.676 282.393 264.225C282.84 263.944 283.358 263.828 283.87 263.895C284.382 263.962 284.86 264.208 285.233 264.596C285.605 264.985 285.851 265.495 285.935 266.049C286.018 266.603 285.934 267.171 285.695 267.669C285.088 268.576 284.311 269.333 283.417 269.892C282.523 270.451 281.53 270.798 280.505 270.912C279.436 271.74 278.145 272.157 276.835 272.099C276.491 272.035 276.165 271.885 275.884 271.661C275.602 271.437 275.372 271.146 275.212 270.809C275.051 270.472 274.964 270.099 274.958 269.72C274.952 269.34 275.026 268.964 275.176 268.622C275.575 267.368 276.635 265.663 275.667 264.576C275.426 264.389 275.152 264.256 274.863 264.185C274.574 264.113 274.274 264.104 273.982 264.159C273.69 264.213 273.41 264.329 273.159 264.501C272.908 264.673 272.691 264.898 272.52 265.161C271.784 265.977 271.149 266.893 270.631 267.886C270.052 268.724 269.345 269.447 268.542 270.026C268.312 270.026 268.297 270.026 268.205 270.143C265.487 270.143 263.797 267.184 264.135 264.158C263.705 262.938 263.152 260.297 261.54 262.486C261.073 263.26 260.716 264.105 260.481 264.994C260.042 265.732 259.652 266.503 259.313 267.301C258.608 267.836 257.781 268.151 256.923 268.21C256.064 268.269 255.207 268.07 254.446 267.635C252.495 266.68 250.803 265.194 249.532 263.322C248.457 261.901 247.52 260.815 248.718 259.126C249.056 258.625 249.946 257.789 249.931 257.053C249.9 256.634 249.725 256.242 249.44 255.957C249.155 255.672 248.782 255.514 248.395 255.515C246.537 254.529 245.862 257.187 244.894 258.408C244.237 259.128 243.387 259.605 242.466 259.77C241.546 259.935 240.601 259.78 239.765 259.327C238.46 258.809 234.483 256.87 235.42 254.88C235.819 253.994 237.063 253.944 237.554 253.209C237.776 252.727 237.845 252.178 237.751 251.649C237.656 251.12 237.404 250.639 237.032 250.283C236.541 249.665 234.314 248.21 234.314 249.832C234.114 250.25 234.314 250.968 234.207 251.503C234.016 252.049 233.857 252.608 233.731 253.175C233.07 253.476 232.686 254.345 232.195 254.747C231.576 255.26 230.836 255.573 230.06 255.649C229.887 255.626 229.712 255.626 229.538 255.649C227.302 254.643 225.31 253.087 223.719 251.102C223.155 250.428 222.713 249.646 222.413 248.795C222.214 247.709 223.043 246.94 223.012 245.87C223.012 244.048 220.079 241.574 219.48 244.198C219.189 245.535 219.849 246.472 219.235 247.826C218.835 248.678 218.375 249.497 217.392 249.497V249.598C212.662 248.879 217.499 243.195 214.766 241.089C213.891 240.42 211.587 239.618 210.589 240.253C209.054 241.222 210.942 243.229 209.054 244.064L208.685 243.931C206.673 243.479 204.078 241.256 204.416 238.665C204.554 237.662 205.614 236.993 205.629 236.04C205.453 235.126 204.958 234.323 204.247 233.8C204.034 233.507 203.751 233.284 203.428 233.157C203.105 233.03 202.756 233.004 202.42 233.081C201.391 233.265 201.376 233.9 201.422 234.92C201.545 237.344 201.299 238.581 199.226 239.818C198.348 239.697 197.502 239.382 196.739 238.894C195.976 238.405 195.312 237.753 194.788 236.976C194.082 235.639 194.788 233.366 194.788 231.961C194.619 230.891 192.531 230.056 191.717 229.855C188.292 227.632 189.736 221.379 193.882 223.603C195.32 224.681 196.487 226.136 197.276 227.832C198.043 229.002 199.963 231.176 201.176 229.203C202.143 227.665 200.224 227.013 200.316 225.609C200.408 225.626 200.04 225.943 200.255 225.91Z" fill="#9FCC29"/>
<path d="M215.198 206.854C215.198 206.854 201.725 205.024 195.573 209.261L195.973 211.948C195.973 211.948 217.628 216.3 231.547 225.929C245.466 235.557 259.877 247.724 263.738 252.307C263.738 252.307 279.979 244.064 293.529 251.664L294.621 249.174C292.232 245.225 289 241.942 285.193 239.596C279.302 236.167 236.392 222.384 215.198 206.854Z" fill="#FFCF08"/>
<path d="M269.89 247.647C266.814 248.2 264.291 248.804 264.291 248.804C250.449 236.535 240.206 227.015 229.055 221.283C218.355 215.718 207.127 211.446 195.573 208.545L195.973 211.277C195.973 211.277 217.628 215.701 231.547 225.49C245.466 235.278 259.877 247.647 263.738 252.307C263.738 252.307 279.979 243.926 293.529 251.653L294.621 249.122C283.194 243.792 273.935 246.893 269.89 247.647Z" fill="#EFA708"/>
<path d="M288.732 233.528C289.155 234.061 289.466 234.685 289.643 235.358C289.82 236.03 289.859 236.736 289.757 237.426C289.198 239.318 287.117 242.669 285.967 242.918C283.482 243.432 238.811 226.925 207.25 206.42C207.25 206.42 206.426 205.275 208.803 198.125C208.803 198.125 216.818 206.851 252.2 223.01C280.267 235.734 288.732 233.528 288.732 233.528Z" fill="#E72124"/>
<g style="mix-blend-mode:multiply" opacity="0.55">
<path d="M247.842 225.63C255.055 228.902 262.42 231.771 269.907 234.223C276.509 236.628 282.217 238.503 288.818 237.391C288.892 236.721 288.839 236.041 288.662 235.394C288.485 234.747 288.187 234.145 287.787 233.625C287.787 233.625 279.401 235.765 251.643 223.008C216.59 206.917 208.651 198.125 208.651 198.125C207.987 200.004 207.472 201.941 207.112 203.915C219.129 213.918 234.24 218.911 247.842 225.63Z" fill="#C42124"/>
</g>
<path d="M263.183 185.129C255.705 181.451 247.82 178.833 239.723 177.339C234.283 176.165 228.706 175.933 223.2 176.652C218.217 177.399 213.579 179.826 209.944 183.588C208.382 185.489 207.254 187.76 206.652 190.219C206.049 192.678 205.989 195.255 206.475 197.744C208.024 206.472 276.64 238.051 289.338 235.488C289.338 235.488 294.712 232.841 295.533 224.565C295.92 220.226 293.984 215.016 292.033 211.33C288.798 205.562 284.646 200.458 279.768 196.253C274.709 191.783 269.134 188.043 263.183 185.129V185.129Z" fill="#F89945"/>
<path d="M277.297 223.279C266.339 221.625 257.336 215.817 247.386 211.052C237.157 206.089 226.229 202.018 217.087 194.937C213.035 191.777 210.288 188.683 209.667 184.579C208.204 186.448 207.156 188.645 206.602 191.006C206.049 193.367 206.003 195.831 206.469 198.213C208.022 206.833 276.8 238.021 289.529 235.49C291.232 234.451 292.673 232.987 293.728 231.223C294.782 229.459 295.419 227.448 295.582 225.364C289.56 226.075 283.817 224.322 277.297 223.279Z" fill="#E8761F"/>
<g style="mix-blend-mode:screen" opacity="0.32">
<path d="M263.651 189.465C261.746 187.481 255.871 183.532 253.678 186.99C251.789 189.974 256.976 193.541 258.737 194.597C260.738 195.816 264.179 197.035 265.428 194.779C266.373 193.05 265.236 191.084 263.651 189.465Z" fill="#FDE5C1"/>
</g>
<g style="mix-blend-mode:screen" opacity="0.32">
<path d="M276.514 204.625C271.869 201.606 266.316 199.167 261.384 200.66C257.329 201.855 259.311 205.239 261.535 207.461C264.997 210.993 269.073 213.723 273.518 215.49C276.454 216.568 281.764 218.542 282.99 214.163C283.111 213.494 283.111 212.805 282.989 212.136C282.867 211.467 282.626 210.831 282.279 210.265C280.683 208.019 278.73 206.109 276.514 204.625V204.625Z" fill="#FDE5C1"/>
</g>
<path d="M241.731 187.119C241.731 187.998 240.704 188.747 239.377 188.747C238.05 188.747 236.952 188.129 236.923 187.249C236.895 186.37 237.965 185.621 239.292 185.621C240.618 185.621 241.717 186.256 241.731 187.119Z" fill="#FBD198"/>
<path d="M256.155 207.967C256.155 208.841 254.905 209.587 253.313 209.587C251.721 209.587 250.403 208.955 250.385 208.08C250.368 207.206 251.635 206.461 253.227 206.461C254.82 206.461 256.121 207.06 256.155 207.967Z" fill="#FBD198"/>
<path d="M272.503 214.21C272.503 215.089 271.476 215.838 270.135 215.838C268.794 215.838 267.724 215.203 267.695 214.34C267.667 213.478 268.737 212.712 270.064 212.712C271.39 212.712 272.489 213.347 272.503 214.21Z" fill="#FBD198"/>
<path d="M228.268 186.077C228.268 186.956 227.24 187.705 225.914 187.705C224.587 187.705 223.489 187.07 223.46 186.208C223.431 185.345 224.501 184.579 225.828 184.579C227.155 184.579 228.253 185.149 228.268 186.077Z" fill="#FBD198"/>
<path d="M290.774 216.294C290.774 217.173 289.542 217.922 287.932 217.922C286.323 217.922 285.039 217.287 285.005 216.424C284.971 215.562 286.255 214.796 287.847 214.796C289.439 214.796 290.689 215.448 290.774 216.294Z" fill="#FBD198"/>
<path d="M262.524 206.219C261.918 206.835 260.708 206.219 259.851 204.97C258.995 203.72 258.774 202.108 259.394 201.492C260.014 200.876 261.21 201.492 262.081 202.742C262.952 203.992 263.144 205.622 262.524 206.219Z" fill="#FBD198"/>
<path d="M279.21 208.625C278.983 209.432 277.467 209.798 275.951 209.463C274.434 209.128 273.266 208.229 273.493 207.422C273.72 206.615 275.236 206.25 276.752 206.585C278.269 206.92 279.419 207.833 279.21 208.625Z" fill="#FBD198"/>
<path d="M236.592 198.975C235.968 199.466 234.764 198.975 233.887 197.978C233.01 196.982 232.817 195.682 233.442 195.191C234.066 194.7 235.27 195.191 236.132 196.202C236.994 197.213 237.157 198.484 236.592 198.975Z" fill="#FBD198"/>
<path d="M249.104 200.043C248.52 200.547 247.319 199.863 246.435 198.513C245.55 197.163 245.313 195.669 245.898 195.165C246.482 194.661 247.683 195.345 248.567 196.695C249.451 198.045 249.688 199.539 249.104 200.043Z" fill="#FBD198"/>
<path d="M222.323 192.607C221.815 193.207 220.425 192.907 219.187 191.923C217.95 190.94 217.373 189.656 217.865 189.056C218.357 188.456 219.763 188.756 221.001 189.739C222.238 190.723 222.815 192.006 222.323 192.607Z" fill="#FBD198"/>
<path d="M272.123 198.998C271.49 199.44 270.287 198.998 269.433 197.878C268.578 196.759 268.404 195.61 269.037 195.168C269.67 194.726 270.873 195.168 271.727 196.288C272.582 197.407 272.756 198.556 272.123 198.998Z" fill="#FBD198"/>
<path d="M286.558 209.375C285.925 209.928 284.722 209.375 283.868 207.976C283.013 206.577 282.823 205.14 283.456 204.588C284.089 204.036 285.308 204.588 286.146 205.987C286.985 207.387 287.191 208.823 286.558 209.375Z" fill="#FBD198"/>
<path d="M249.044 186.453C248.411 187.003 247.208 186.453 246.354 185.058C245.499 183.664 245.325 182.215 245.958 181.664C246.591 181.114 247.794 181.664 248.648 183.059C249.503 184.453 249.677 185.902 249.044 186.453Z" fill="#FBD198"/>
<g style="mix-blend-mode:multiply" opacity="0.35">
<path d="M295.504 223.229C283.837 223.525 270.714 219.164 260.472 215.165C253.066 212.284 244.978 209.157 238.966 203.529C232.955 197.9 230.243 190.527 234.675 182.89C235.831 180.96 237.431 179.374 239.323 178.282C234.013 177.197 228.577 176.997 223.209 177.689C218.224 178.423 213.583 180.807 209.946 184.503C208.383 186.371 207.255 188.602 206.652 191.018C206.049 193.433 205.989 195.965 206.475 198.41C208.025 206.985 276.679 238.009 289.384 235.491C289.384 235.491 294.76 232.89 295.582 224.76C295.587 224.248 295.561 223.737 295.504 223.229Z" fill="#D48745"/>
</g>
<g style="mix-blend-mode:multiply" opacity="0.32">
<path d="M250.816 213.021L247.128 211.171C237.175 206.285 226.582 202.044 217.582 195.258C213.566 192.238 210.832 189.32 210.066 185.621C208.743 187.238 207.823 189.194 207.391 191.305C206.958 193.416 207.03 195.611 207.597 197.684C208.676 202.078 230.41 213.954 251.347 223.132C250.746 219.804 250.567 216.402 250.816 213.021V213.021Z" fill="#BA773D"/>
</g>
<path d="M181.148 271.743C181.148 271.743 145.723 239.928 126.958 248.619C108.192 257.309 101.008 260.825 96.8124 271.525C94.2422 278.056 92.632 299.991 91.2695 307.108C89.907 314.224 85.0763 329.797 105.607 327.017C126.137 324.238 160.68 271.994 181.148 271.743Z" fill="#F89945"/>
<g style="mix-blend-mode:multiply" opacity="0.35">
<path d="M144.014 248.157H143.086H142.962C142.838 248.518 142.605 248.821 142.301 249.018C141.997 249.214 141.64 249.291 141.291 249.236C135.365 248.578 131.388 250.062 125.71 252.237C122.956 253.282 118.422 256.149 115.389 255.356C115.273 255.305 115.164 255.237 115.065 255.154C114.384 255.356 113.703 255.542 113.053 255.795C108.024 257.632 106.864 260.279 104.605 265.354C103.058 268.861 99.7776 277.157 95.8939 279.45C96.1239 281.861 96.4647 284.258 96.9151 286.632C97.4658 289.572 97.5704 292.591 97.2246 295.568C96.7294 298.789 95.4143 301.941 92.1031 301.823C91.9639 302.869 91.8401 303.813 91.7163 304.673C92.9933 307.111 93.799 309.807 94.0836 312.597C94.2074 315.615 93.3409 318.616 93.6194 321.348C95.5071 322.612 95.9868 324.501 96.4664 326.76C99.4909 327.452 102.606 327.532 105.657 326.996C126.143 324.18 160.693 271.593 181.148 271.357C181.148 271.306 161.715 253.704 144.014 248.157Z" fill="#E09945"/>
</g>
<path d="M108.665 267.806C108.323 268.527 108.122 269.32 108.075 270.132C108.028 270.944 108.135 271.758 108.39 272.522C108.645 273.286 109.042 273.982 109.555 274.566C110.069 275.15 110.687 275.608 111.371 275.912C112.667 276.334 114.036 276.404 115.361 276.115C121.598 275.152 127.179 271.538 132.774 268.363C138.37 265.188 144.469 262.317 150.722 262.993C152.435 263.179 154.116 263.635 155.844 263.668C157.573 263.823 159.288 263.216 160.614 261.98C161.903 260.249 162.63 258.09 162.678 255.849C162.968 253.502 163.152 250.783 161.669 249.094C160.751 248.064 159.391 247.642 158.443 246.645C157.484 245.319 156.715 243.838 156.165 242.254C155.298 240.615 153.989 239.316 152.421 238.538C150.854 237.76 149.105 237.542 147.42 237.914C146.717 238.083 145.891 238.64 146.044 239.417C146.197 240.194 147.16 240.261 147.863 240.11C148.567 239.958 149.392 239.772 149.866 240.413C150.34 241.055 149.866 242.102 149.117 242.305C148.408 242.494 147.665 242.453 146.977 242.187C142.815 241.121 138.495 241.04 134.303 241.95C133.584 242.053 132.898 242.342 132.3 242.795C132.008 243.033 131.791 243.366 131.678 243.748C131.566 244.129 131.564 244.54 131.673 244.923C132.193 246.257 134.303 246.291 134.502 247.726C134.524 248.084 134.443 248.441 134.27 248.744C134.097 249.048 133.841 249.283 133.538 249.415C132.932 249.658 132.285 249.75 131.643 249.685L125.956 249.567C125.008 248.779 123.91 248.242 122.745 247.996C122.16 247.89 121.561 247.998 121.036 248.302C120.512 248.607 120.092 249.093 119.84 249.685C119.397 251.104 120.284 252.928 119.397 254.059C118.98 254.441 118.456 254.65 117.914 254.65C117.373 254.65 116.848 254.441 116.431 254.059C115.602 253.286 114.723 252.581 113.802 251.948C112.99 251.602 112.097 251.567 111.265 251.849C110.434 252.131 109.712 252.713 109.215 253.502C108.747 254.3 108.48 255.22 108.439 256.17C108.399 257.119 108.588 258.063 108.986 258.906C109.674 260.46 110.989 261.828 110.912 263.55C110.836 265.273 109.46 266.32 108.665 267.806Z" fill="#9FCC29"/>
<path d="M156.639 246.447C155.769 245.172 155.265 243.646 154.486 242.304C154.139 241.601 153.637 241.005 153.026 240.571C152.415 240.137 151.714 239.879 150.988 239.821C151.227 240.002 151.429 240.237 151.58 240.51C151.731 240.783 151.827 241.088 151.863 241.405C151.899 241.721 151.874 242.043 151.789 242.348C151.704 242.654 151.561 242.936 151.37 243.176C151.242 243.333 151.098 243.474 150.942 243.595C151.319 244.12 151.651 244.682 151.935 245.273C152.546 246.682 153.08 248.125 153.585 249.567C154.333 251.715 155.402 254.164 154.516 256.428C153.63 258.693 150.881 257.871 150.927 256.042C150.872 255.947 150.826 255.846 150.789 255.74C150.23 252.987 149.287 250.344 147.994 247.907C147.047 246.229 145.794 244.937 144.771 243.411C142.455 242.713 140.038 242.514 137.653 242.824C137.057 242.824 136.324 243.143 136.125 243.797C135.927 244.451 136.568 245.021 137.149 245.256C137.757 245.38 138.335 245.643 138.844 246.028C139.007 246.261 139.123 246.529 139.184 246.815C139.246 247.101 139.252 247.398 139.201 247.686C139.151 247.975 139.045 248.248 138.891 248.488C138.738 248.729 138.54 248.931 138.31 249.081C137.348 249.65 136.241 249.85 135.163 249.651C134.497 249.593 133.828 249.593 133.162 249.651C132.951 249.707 132.737 249.746 132.521 249.769C132.321 249.813 132.126 249.88 131.94 249.97C131.03 250.557 130.231 251.332 129.588 252.251C129.261 252.709 128.843 253.08 128.367 253.335C127.891 253.591 127.368 253.725 126.838 253.728C125.311 253.509 123.997 251.329 122.516 252.05C121.034 252.771 121.599 255.757 120.27 257.082C119.855 257.39 119.37 257.562 118.87 257.58C118.371 257.598 117.876 257.46 117.444 257.183C116.543 256.73 115.764 255.992 114.832 255.506C114.385 255.256 113.879 255.162 113.382 255.237C112.886 255.312 112.421 255.552 112.052 255.925C111.749 256.482 111.612 257.13 111.661 257.777C111.711 258.424 111.944 259.038 112.327 259.532C113.122 260.516 113.651 261.724 113.855 263.021C113.855 265.554 110.8 266.812 110.097 269.228C109.896 270.233 109.972 271.282 110.315 272.241C110.657 273.2 111.251 274.025 112.022 274.612C112.863 275.337 113.807 275.904 114.817 276.29L115.413 276.206C121.645 275.25 127.22 271.66 132.811 268.506C138.401 265.353 144.496 262.501 150.743 263.172C152.454 263.356 154.134 263.809 155.86 263.843C157.588 263.996 159.301 263.393 160.626 262.165C161.915 260.446 162.641 258.302 162.688 256.076C162.869 254.879 162.92 253.663 162.841 252.453C161.115 250.121 158.289 248.829 156.639 246.447Z" fill="#73A624"/>
<path d="M102.294 280.381C102.294 280.381 104.601 266.889 104.878 264.828C104.878 264.828 112.707 270.431 120.49 269.159L128.258 278.401C128.258 278.401 111.892 286.209 102.294 280.381Z" fill="#FFCF08"/>
<g style="mix-blend-mode:multiply" opacity="0.35">
<path d="M120.092 270.038L119.309 270.137C118.654 271.946 117.581 273.556 116.187 274.824C114.793 276.092 113.121 276.977 111.321 277.4C110.006 277.612 108.661 277.455 107.423 276.944C106.184 276.433 105.098 275.587 104.273 274.491C103.741 277.679 103.255 280.538 103.255 280.538C112.136 285.944 127.296 278.698 127.296 278.698L120.092 270.038Z" fill="#E6B970"/>
</g>
<path d="M105.817 265.87C105.541 268.124 103.255 282.087 103.255 282.087C103.946 282.525 103.884 282.239 104.636 282.541C104.391 278.218 107.213 268.747 107.213 268.747C116.71 271.573 121.742 271.657 120.33 269.823C115.283 269.72 110.322 268.368 105.817 265.87Z" fill="#EFA708"/>
<path d="M111.928 282.199C111.943 282.312 111.943 282.428 111.928 282.541C117.56 282.173 123.088 280.736 128.258 278.297L124.898 276.29C121.19 277.302 111.443 279.212 111.928 282.199Z" fill="#EFA708"/>
<path d="M120.548 291.95C120.622 289.617 120.458 287.282 120.059 284.989C119.922 283.961 119.769 282.917 119.632 281.872C119.494 280.828 118.792 280.431 117.998 280.497C117.213 280.673 116.438 280.9 115.678 281.176C113.968 281.574 112.304 280.497 110.731 279.668C107.876 278.16 104.746 277.367 101.572 277.348C100.127 277.25 98.6871 277.601 97.4192 278.359C96.7936 278.759 96.3021 279.365 96.0165 280.09C95.7309 280.814 95.666 281.619 95.8315 282.386C96.5337 284.806 99.8313 285.337 100.656 287.723C100.793 288.121 100.808 288.668 100.457 288.884C100.106 289.099 99.6633 288.767 99.3427 288.469C97.9411 287.071 96.1869 286.159 94.3049 285.85C93.355 285.71 92.3883 285.797 91.473 286.106C90.5576 286.416 89.716 286.939 89.0075 287.64C88.3115 288.363 87.823 289.289 87.6009 290.307C87.3787 291.324 87.4325 292.39 87.7557 293.375C88.1216 294.338 88.7908 295.128 89.6436 295.605C90.4965 296.081 91.4776 296.213 92.4119 295.977C93.3889 295.679 94.4881 294.933 95.3124 295.58C95.4663 295.754 95.5833 295.962 95.6553 296.19C95.7273 296.418 95.7526 296.661 95.7293 296.901C95.7061 297.141 95.6348 297.372 95.5207 297.579C95.4065 297.786 95.252 297.964 95.0682 298.099C94.6735 298.353 94.2311 298.508 93.7738 298.551C93.3166 298.594 92.8563 298.524 92.4271 298.348C91.5482 298.01 90.6441 297.755 89.725 297.585C88.801 297.522 87.8819 297.773 87.0944 298.301C86.307 298.829 85.6899 299.61 85.3283 300.535C84.9997 301.472 84.9044 302.486 85.0518 303.475C85.1992 304.465 85.5842 305.394 86.168 306.171C86.7717 306.931 87.5193 307.54 88.3597 307.958C89.2001 308.375 90.1136 308.591 91.0379 308.591C92.8343 308.419 94.6066 308.024 96.32 307.414C101.053 306.237 106.151 307.198 110.777 305.541C113.433 304.529 115.766 302.71 117.498 300.301C119.23 297.892 120.288 294.993 120.548 291.95V291.95Z" fill="#9FCC29"/>
<path d="M97.5975 296.064C98.0222 297.486 96.8694 298.976 95.5952 299.49C94.2803 299.768 92.9369 299.832 91.606 299.679C90.9436 299.607 90.276 299.727 89.6658 300.027C89.0556 300.327 88.5227 300.796 88.1173 301.392C87.8043 302.224 87.7874 303.161 88.0699 304.006C88.3524 304.852 88.9126 305.542 89.6341 305.933C91.1258 306.634 92.7925 306.694 94.3211 306.105C97.1576 305.231 99.7665 303.466 102.664 302.849C104.605 302.421 106.607 302.54 108.579 302.266C110.577 302.15 112.46 301.175 113.843 299.542C114.734 298.173 115.331 296.59 115.587 294.915C116.54 290.401 117.239 285.822 117.68 281.208C115.147 282.613 112.311 284.069 109.58 283.23C108.497 282.838 107.474 282.261 106.547 281.516C105.608 280.767 104.589 280.156 103.513 279.7C102.97 279.48 102.393 279.386 101.817 279.424C101.241 279.462 100.677 279.632 100.161 279.922C99.6522 280.238 99.2516 280.736 99.0234 281.339C98.7952 281.942 98.7524 282.613 98.9019 283.247C99.1278 283.769 99.4552 284.226 99.8597 284.585C100.264 284.945 100.735 285.196 101.238 285.32C102.242 285.541 103.227 285.862 104.18 286.28C104.645 286.511 105.037 286.895 105.307 287.38C105.578 287.865 105.713 288.431 105.697 289.004C105.604 289.46 105.407 289.881 105.125 290.223C104.842 290.566 104.485 290.819 104.089 290.957C102.766 291.386 101.348 291.24 100.115 290.546C98.8564 289.964 97.6885 289.124 96.4143 288.593C95.7877 288.283 95.1112 288.123 94.4273 288.123C93.7434 288.123 93.0669 288.283 92.4402 288.593C91.8477 288.951 91.4002 289.553 91.1911 290.275C90.982 290.996 91.0274 291.781 91.3178 292.465C91.7356 292.978 92.245 293.386 92.8124 293.66C93.3797 293.935 93.9921 294.071 94.6093 294.059C95.8683 294.264 97.2183 294.727 97.5975 296.064Z" fill="#73A624"/>
<path d="M103.255 304.68C103.253 305.121 103.365 305.555 103.58 305.936C103.795 306.317 104.106 306.632 104.479 306.847C105.226 307.285 106.069 307.517 106.927 307.52C109.341 307.678 111.752 307.18 113.921 306.075C116.6 304.737 118.709 302.429 119.85 299.59C120.405 298.177 120.642 296.652 120.543 295.13C120.444 293.609 120.011 292.13 119.278 290.807C118.514 289.499 117.423 288.429 116.119 287.709C114.815 286.99 113.347 286.647 111.87 286.719C110.79 286.817 109.534 287.392 109.454 288.508C109.375 289.625 110.567 290.38 111.044 291.414C111.197 291.783 111.253 292.187 111.205 292.585C111.158 292.983 111.009 293.361 110.774 293.68C110.529 293.993 110.21 294.234 109.848 294.381C109.486 294.528 109.093 294.575 108.707 294.517C107.404 294.32 106.323 292.875 105.036 293.187C104.539 293.334 104.109 293.656 103.818 294.097C103.528 294.538 103.396 295.07 103.446 295.601C103.585 296.637 103.891 297.641 104.352 298.572C104.817 299.509 104.946 300.584 104.718 301.61C104.448 302.709 103.398 303.53 103.255 304.68Z" fill="#9FCC29"/>
<path d="M118.325 290.718C117.525 290.536 116.771 290.173 116.113 289.652C115.455 289.126 114.663 288.826 113.842 288.793C113.439 288.792 113.05 288.956 112.755 289.252C112.46 289.547 112.281 289.952 112.254 290.384C112.254 291.036 112.833 291.529 113.13 292.102C113.334 292.496 113.441 292.94 113.441 293.391C113.441 293.841 113.334 294.285 113.13 294.679C112.913 295.065 112.609 295.386 112.246 295.614C111.883 295.842 111.473 295.969 111.052 295.983C110.45 295.922 109.854 295.805 109.271 295.633C108.945 295.507 108.589 295.496 108.257 295.602C107.924 295.709 107.633 295.927 107.425 296.224C107.217 296.522 107.104 296.884 107.102 297.256C107.101 297.628 107.211 297.99 107.416 298.29C108.011 299.702 109.066 300.834 110.384 301.471C111.692 302.138 113.14 302.429 114.585 302.314C116.345 302.287 118.05 301.657 119.453 300.517C120.147 299.903 120.696 299.122 121.055 298.237C121.413 297.353 121.571 296.389 121.516 295.427C121.437 294.468 121.085 293.559 120.505 292.825C119.926 292.09 119.149 291.565 118.28 291.323L118.325 290.718Z" fill="#73A624"/>
<path d="M148.585 256.556L150.935 261.702L171.531 260.622L171.086 256.402C171.086 256.402 164.743 246.607 157.846 246.11C150.95 245.612 147.74 250.244 148.585 256.556Z" fill="#D12424"/>
<path d="M148.587 256.493H171.531C171.531 256.493 165.063 246.613 158.031 246.111C150.999 245.609 147.726 250.125 148.587 256.493Z" fill="#EA3333"/>
<path d="M154.028 253.675C154.749 253.999 157.165 256.049 157.447 256.1C156.811 254.912 156.104 253.771 155.329 252.684C155.329 252.684 156.788 250.977 161.054 252.838C161.054 252.838 160.27 254.665 161.493 255.656C162.717 256.646 162.685 253.521 162.607 253.077C162.529 252.633 165.509 253.828 167.077 256.356H171.531C171.531 256.356 165.054 246.605 158.011 246.109C150.969 245.614 147.691 250.208 148.601 256.493H153.118C153.212 255.314 153.526 253.436 154.028 253.675Z" fill="#C91D1D"/>
<path d="M156.6 249.918C158.939 249.746 161.278 250.251 163.38 251.381C165.482 252.512 167.271 254.228 168.567 256.356H171.531C171.531 256.356 165.054 246.605 158.011 246.109C150.969 245.614 147.691 250.208 148.601 256.493H150.75C150.499 251.096 153.447 250.071 156.6 249.918Z" fill="#FF3333"/>
<path d="M155.184 255.137C155.184 255.402 155.049 255.527 154.793 255.402C154.654 255.34 154.53 255.246 154.431 255.128C154.332 255.009 154.261 254.868 154.222 254.716C154.222 254.451 154.372 254.341 154.628 254.451C154.765 254.513 154.886 254.607 154.983 254.726C155.079 254.845 155.148 254.986 155.184 255.137V255.137Z" fill="#FF7E70"/>
<path d="M158.069 254.076C158.069 254.345 157.939 254.479 157.681 254.371C157.535 254.31 157.407 254.217 157.307 254.101C157.207 253.984 157.139 253.846 157.107 253.699C157.107 253.431 157.236 253.296 157.494 253.404C157.639 253.467 157.766 253.56 157.866 253.677C157.965 253.793 158.035 253.93 158.069 254.076V254.076Z" fill="#FF7E70"/>
<path d="M159.992 255.106C159.992 255.372 159.87 255.517 159.599 255.42C159.455 255.351 159.33 255.254 159.232 255.137C159.134 255.02 159.065 254.886 159.03 254.743C159.03 254.476 159.152 254.343 159.423 254.44C159.566 254.507 159.692 254.602 159.79 254.717C159.888 254.832 159.957 254.964 159.992 255.106V255.106Z" fill="#FF7E70"/>
<path d="M164.8 255.128C164.8 255.381 164.67 255.523 164.409 255.413C164.269 255.346 164.145 255.251 164.046 255.134C163.948 255.016 163.877 254.88 163.838 254.733C163.838 254.464 163.969 254.338 164.246 254.449C164.386 254.513 164.509 254.608 164.605 254.726C164.701 254.844 164.768 254.981 164.8 255.128V255.128Z" fill="#FF7E70"/>
<path d="M116.107 256.688L112.872 260.011L129.277 288.793L132.968 288.145C134.297 285.274 134.99 282.1 134.99 278.881C134.99 275.662 134.297 272.488 132.968 269.616C128.35 259.928 121.484 255.475 116.107 256.688Z" fill="#D12424"/>
<path d="M115.757 256.686L132.93 287.751C134.284 284.912 134.99 281.775 134.99 278.593C134.99 275.41 134.284 272.273 132.93 269.434C128.227 259.889 121.234 255.486 115.757 256.686Z" fill="#EA3333"/>
<path d="M122.554 264.078C122.771 265.064 122.554 268.399 122.709 268.695C122.864 268.99 124.428 265.836 124.428 265.836C124.428 265.836 127.246 267.808 128.531 273.574C128.531 273.574 126.177 272.522 126.116 274.182C126.054 275.841 129.088 275.824 129.46 275.677C129.832 275.529 130.9 279.619 129.584 281.739L132.928 287.751C134.283 284.912 134.99 281.775 134.99 278.593C134.99 275.41 134.283 272.273 132.928 269.434C128.283 259.889 121.238 255.486 115.757 256.686L119.132 262.748C120.325 262.978 122.399 263.388 122.554 264.078Z" fill="#C91D1D"/>
<path d="M128.036 267.479C130.916 272.407 133.331 278.338 130.714 283.759L132.928 287.751C134.283 284.912 134.99 281.775 134.99 278.593C134.99 275.41 134.283 272.273 132.928 269.434C128.283 259.889 121.238 255.486 115.757 256.686L117.305 259.577C122.337 259.232 125.543 263.208 128.036 267.479Z" fill="#FF3333"/>
<path d="M122.148 265.87C121.903 265.87 121.642 265.569 121.566 264.991C121.513 264.767 121.513 264.519 121.567 264.295C121.621 264.072 121.725 263.89 121.857 263.786C122.102 263.786 122.363 264.088 122.455 264.665C122.503 264.893 122.499 265.141 122.442 265.364C122.385 265.586 122.281 265.766 122.148 265.87Z" fill="#FF7E70"/>
<path d="M125.024 268.994C124.885 269.005 124.746 268.966 124.637 268.886C124.529 268.807 124.459 268.693 124.442 268.568C124.395 268.451 124.403 268.321 124.462 268.208C124.521 268.095 124.629 268.008 124.76 267.965C125.011 267.906 125.263 268.095 125.342 268.379C125.389 268.498 125.383 268.63 125.323 268.745C125.264 268.86 125.157 268.949 125.024 268.994V268.994Z" fill="#FF7E70"/>
<path d="M125.994 272.114C125.861 272.146 125.726 272.079 125.619 271.927C125.512 271.775 125.441 271.55 125.42 271.301C125.39 271.182 125.374 271.052 125.374 270.921C125.373 270.789 125.389 270.659 125.419 270.54C125.449 270.421 125.493 270.316 125.547 270.234C125.602 270.151 125.666 270.092 125.734 270.062C125.802 270.031 125.873 270.03 125.942 270.058C126.01 270.086 126.074 270.143 126.13 270.224C126.185 270.305 126.23 270.408 126.261 270.526C126.292 270.644 126.309 270.773 126.31 270.905C126.351 271.144 126.341 271.404 126.282 271.63C126.223 271.856 126.12 272.029 125.994 272.114V272.114Z" fill="#FF7E70"/>
<path d="M128.88 278.374C128.633 278.374 128.371 278.238 128.294 277.954C128.243 277.836 128.246 277.705 128.304 277.588C128.362 277.472 128.469 277.38 128.602 277.332C128.744 277.328 128.882 277.369 128.991 277.449C129.099 277.529 129.17 277.642 129.189 277.765C129.235 277.882 129.229 278.01 129.172 278.123C129.114 278.236 129.01 278.326 128.88 278.374V278.374Z" fill="#FF7E70"/>
<path d="M115.286 255.66L111.91 258.982L129.025 287.751L132.876 287.104C134.265 284.231 134.989 281.056 134.989 277.835C134.989 274.614 134.265 271.439 132.876 268.567C128.058 258.85 120.911 254.398 115.286 255.66Z" fill="#D12424"/>
<path d="M115.757 255.665L132.927 287.751C134.283 284.818 134.99 281.576 134.99 278.288C134.99 275 134.283 271.758 132.927 268.825C128.224 258.921 121.248 254.376 115.757 255.665Z" fill="#EA3333"/>
<path d="M122.563 263.285C122.779 264.303 122.563 267.747 122.733 268.053C122.903 268.358 124.435 265.101 124.435 265.101C124.435 265.101 127.265 267.137 128.534 273.092C128.534 273.092 126.182 272.006 126.121 273.72C126.059 275.433 129.09 275.416 129.462 275.281C129.833 275.145 130.9 279.336 129.601 281.524L132.927 287.751C134.283 284.817 134.99 281.574 134.99 278.284C134.99 274.994 134.283 271.751 132.927 268.816C128.286 258.959 121.248 254.411 115.757 255.65L119.144 261.962C120.351 262.148 122.424 262.572 122.563 263.285Z" fill="#C91D1D"/>
<path d="M128.039 266.797C130.931 271.887 133.329 278.029 130.715 283.611L132.927 287.751C134.283 284.817 134.99 281.574 134.99 278.284C134.99 274.994 134.283 271.751 132.927 268.816C128.286 258.959 121.248 254.411 115.757 255.65L117.304 258.653C122.346 258.28 125.548 262.488 128.039 266.797Z" fill="#FF3333"/>
<path d="M121.201 264.828C120.952 264.828 120.671 264.676 120.593 264.398C120.515 264.12 120.593 263.829 120.889 263.791C121.186 263.753 121.404 263.93 121.497 264.221C121.591 264.512 121.451 264.778 121.201 264.828Z" fill="#FF7E70"/>
<path d="M124.696 268.993C124.416 269.013 124.138 268.938 123.918 268.783C123.698 268.627 123.553 268.403 123.513 268.156C123.417 267.914 123.431 267.649 123.551 267.417C123.672 267.185 123.89 267.003 124.159 266.912C124.435 266.917 124.701 267.003 124.915 267.158C125.13 267.312 125.28 267.526 125.342 267.765C125.403 268.005 125.373 268.255 125.257 268.478C125.14 268.7 124.942 268.881 124.696 268.993Z" fill="#FF7E70"/>
<path d="M125.03 271.075C124.964 271.084 124.897 271.081 124.832 271.065C124.767 271.05 124.707 271.022 124.653 270.985C124.6 270.947 124.556 270.899 124.522 270.845C124.489 270.791 124.467 270.731 124.458 270.669C124.428 270.609 124.412 270.545 124.412 270.479C124.411 270.413 124.427 270.348 124.457 270.289C124.487 270.229 124.531 270.177 124.585 270.136C124.639 270.094 124.703 270.065 124.771 270.05C124.839 270.035 124.91 270.034 124.978 270.048C125.046 270.062 125.11 270.09 125.165 270.131C125.22 270.171 125.265 270.223 125.296 270.282C125.327 270.34 125.344 270.405 125.345 270.471C125.367 270.53 125.376 270.593 125.372 270.655C125.368 270.718 125.351 270.779 125.322 270.835C125.293 270.891 125.252 270.941 125.202 270.982C125.151 271.024 125.093 271.055 125.03 271.075Z" fill="#FF7E70"/>
<path d="M128.878 277.332C128.63 277.332 128.366 277.195 128.289 276.907C128.242 276.788 128.248 276.659 128.306 276.544C128.364 276.429 128.468 276.338 128.599 276.29C128.847 276.29 129.111 276.427 129.188 276.715C129.235 276.833 129.229 276.963 129.171 277.077C129.114 277.192 129.009 277.283 128.878 277.332Z" fill="#FF7E70"/>
<path d="M146.689 257.732C147.32 257.36 147.853 256.814 148.235 256.147C148.411 255.635 148.482 255.087 148.442 254.541C148.402 253.995 148.252 253.466 148.003 252.993C147.493 251.769 146.756 250.678 145.839 249.788C145.138 249.05 144.275 248.527 143.335 248.27C142.867 248.139 142.379 248.121 141.904 248.219C141.429 248.316 140.978 248.525 140.584 248.833C140.198 249.153 139.908 249.595 139.754 250.1C139.599 250.605 139.587 251.15 139.718 251.663C139.144 250.706 138.356 249.929 137.43 249.406C136.504 248.883 135.471 248.633 134.432 248.68C133.157 248.751 131.955 249.361 131.078 250.384C130.646 250.885 130.333 251.496 130.168 252.162C130.004 252.829 129.992 253.53 130.135 254.203C130.31 254.863 130.663 255.449 131.145 255.884C131.628 256.319 132.219 256.583 132.84 256.641C132.068 256.33 131.23 256.28 130.432 256.498C129.635 256.716 128.915 257.191 128.363 257.863C127.812 258.535 127.455 259.373 127.339 260.27C127.222 261.167 127.351 262.082 127.708 262.898C128.077 263.651 128.598 264.302 129.23 264.798C129.862 265.295 130.59 265.624 131.356 265.762C132.929 266.032 134.539 265.795 135.993 265.08C137.393 264.37 138.729 263.514 139.981 262.523L146.689 257.732Z" fill="#FFCF08"/>
<path d="M145.896 257.673C146.183 257.224 146.378 256.714 146.47 256.177C146.561 255.639 146.547 255.087 146.427 254.556C146.308 254.025 146.086 253.528 145.777 253.098C145.468 252.668 145.079 252.314 144.635 252.061C144.191 251.808 143.703 251.661 143.203 251.631C142.703 251.6 142.202 251.685 141.735 251.882C141.268 252.078 140.844 252.381 140.492 252.771C140.141 253.16 139.869 253.626 139.695 254.139C139.226 253.182 138.504 252.402 137.623 251.899C136.743 251.396 135.743 251.194 134.756 251.319C134.331 251.347 133.919 251.491 133.558 251.737C133.197 251.984 132.898 252.324 132.689 252.729C132.538 253.22 132.526 253.749 132.657 254.247C132.787 254.744 133.052 255.187 133.418 255.516C134.164 256.16 135.023 256.628 135.941 256.893C134.24 256.779 132.562 257.372 131.245 258.552C130.92 258.797 130.653 259.124 130.468 259.505C130.283 259.887 130.184 260.311 130.181 260.742C130.239 261.091 130.376 261.419 130.581 261.694C130.786 261.97 131.051 262.185 131.351 262.318C131.956 262.583 132.6 262.718 133.251 262.717C135.662 262.832 138.075 262.586 140.425 261.987C141.748 261.683 143.009 261.121 144.149 260.328C145.289 259.522 146.092 258.258 146.383 256.81L145.896 257.673Z" fill="#EFA708"/>
<path d="M173.993 259.496C174.456 260.182 175.102 260.687 175.839 260.94C176.572 261.179 177.282 261.498 177.959 261.892C178.299 262.084 178.592 262.365 178.812 262.712C179.033 263.058 179.174 263.459 179.225 263.88C179.221 264.285 179.141 264.684 178.992 265.053C178.842 265.421 178.625 265.751 178.355 266.022C177.463 266.992 176.325 267.634 175.095 267.862C173.865 268.09 172.602 267.892 171.476 267.296C170.667 266.785 169.914 266.169 169.234 265.461L167.267 263.489L165.025 261.042C163.478 258.874 161.393 257.261 159.03 256.403C159.309 255.668 159.738 255.016 160.284 254.499C160.829 253.983 161.476 253.616 162.172 253.429C163.567 253.063 165.018 253.063 166.412 253.429C166.776 253.576 167.165 253.63 167.55 253.589C167.935 253.548 168.307 253.412 168.639 253.191C169.112 252.698 169.143 251.865 169.493 251.253C169.716 250.879 170.034 250.587 170.406 250.414C170.778 250.242 171.188 250.197 171.583 250.285C171.977 250.384 172.346 250.577 172.667 250.85C172.988 251.123 173.253 251.469 173.444 251.865C173.81 252.668 173.963 253.569 173.886 254.465C173.886 255.332 173.642 256.165 173.566 257.049C173.452 257.895 173.602 258.759 173.993 259.496V259.496Z" fill="#9FCC29"/>
<path d="M159.992 258.817C163.263 258.429 166.348 256.956 168.837 254.594C169.24 254.131 169.719 253.756 170.249 253.487C170.509 253.368 170.796 253.336 171.072 253.397C171.349 253.457 171.602 253.608 171.8 253.828C171.961 254.102 172.046 254.421 172.046 254.747C172.046 255.073 171.961 255.393 171.8 255.667C171.506 256.229 171.071 256.706 170.792 257.285C170.604 257.67 170.49 258.094 170.456 258.53C170.422 258.966 170.468 259.405 170.593 259.82C170.718 260.235 170.918 260.619 171.181 260.947C171.445 261.275 171.766 261.541 172.126 261.729C172.597 261.945 173.085 262.11 173.585 262.223C174.083 262.341 174.546 262.593 174.935 262.955C175.123 263.138 175.259 263.376 175.328 263.642C175.397 263.907 175.395 264.189 175.323 264.453C175.185 264.791 174.958 265.076 174.671 265.271C173.172 266.503 171.307 267.074 169.443 266.872C167.579 266.671 165.852 265.71 164.601 264.181C163.84 263.244 163.282 262.138 162.599 261.133C161.979 260.074 161.065 259.263 159.992 258.817Z" fill="#73A624"/>
<path d="M95.6202 325.209C98.933 326.603 102.626 326.668 105.982 325.391C107.645 324.747 109.162 323.754 110.44 322.474C111.717 321.195 112.728 319.655 113.408 317.952C114.179 315.689 114.633 313.323 114.757 310.926L115.757 299.662C113.217 300.132 110.601 299.834 108.22 298.804C106.831 297.938 105.287 297.376 103.681 297.155C102.881 297.063 102.073 297.217 101.356 297.598C100.64 297.979 100.047 298.571 99.6507 299.299C99.2381 300.239 99.3016 301.361 98.8732 302.284C98.2124 303.461 97.1368 304.325 95.8741 304.692C94.6234 305.045 93.4344 305.602 92.3514 306.341C91.8174 306.726 91.4257 307.289 91.2411 307.937C91.0564 308.585 91.0899 309.279 91.3358 309.904C91.8436 310.877 93.0496 311.322 93.4463 312.345C93.5705 312.808 93.5818 313.297 93.4793 313.766C93.3769 314.235 93.1637 314.671 92.8591 315.033C92.2388 315.754 91.6762 316.526 91.1771 317.342C90.8248 318.14 90.6888 319.022 90.7839 319.894C90.879 320.766 91.2015 321.595 91.7166 322.29C92.7237 323.63 94.078 324.642 95.6202 325.209V325.209Z" fill="#B55728"/>
<g style="mix-blend-mode:multiply" opacity="0.32">
<path d="M110.31 303.333C107.402 305.586 107.096 308.14 106.025 311.444C105.601 312.45 104.942 313.317 104.115 313.958C103.288 314.599 102.321 314.993 101.31 315.099C100.251 315.28 99.1656 315.15 98.1674 314.722C97.1692 314.293 96.2939 313.582 95.6316 312.662C93.8408 310.109 93.5193 307.121 91.1928 307.806C91.0941 308.107 91.0541 308.427 91.0751 308.746C91.0962 309.065 91.178 309.376 91.3152 309.658C91.805 310.643 92.9683 311.094 93.351 312.128C93.4708 312.597 93.4817 313.092 93.3829 313.566C93.284 314.041 93.0784 314.482 92.7846 314.849C92.1862 315.578 91.6436 316.359 91.1622 317.185C90.8223 317.992 90.6911 318.885 90.7828 319.768C90.8745 320.65 91.1857 321.488 91.6826 322.192C92.6642 323.577 93.9936 324.62 95.5092 325.196C98.7047 326.607 102.267 326.672 105.504 325.38C107.108 324.728 108.572 323.723 109.804 322.429C111.036 321.134 112.011 319.576 112.668 317.853C113.429 315.538 113.877 313.115 113.999 310.66C114.26 307.539 114.535 304.418 114.795 301.297C113.204 301.688 111.686 302.377 110.31 303.333V303.333Z" fill="#B55728"/>
</g>
<path d="M108.534 302.438C108.001 301.97 107.364 301.621 106.67 301.416C105.972 301.217 105.221 301.268 104.561 301.56C104.226 301.709 103.934 301.932 103.711 302.21C103.487 302.488 103.338 302.813 103.277 303.157C103.224 303.505 103.269 303.86 103.408 304.187C103.548 304.513 103.777 304.798 104.072 305.014C104.372 305.219 104.717 305.359 105.082 305.424C105.446 305.489 105.822 305.476 106.181 305.388C106.898 305.192 107.557 304.842 108.106 304.366C108.656 303.92 109.191 303.258 108.977 302.611C108.763 301.963 109.053 302.308 108.534 302.438Z" fill="#8D3800"/>
<path d="M105.366 309.268C104.977 308.883 104.496 308.649 103.989 308.6C103.482 308.551 102.975 308.69 102.538 308.996C102.11 309.32 101.772 309.783 101.564 310.33C101.355 310.876 101.286 311.481 101.364 312.073C101.456 312.679 101.689 313.243 102.036 313.704C102.383 314.164 102.832 314.503 103.332 314.683C103.815 314.858 104.328 314.89 104.825 314.774C105.321 314.658 105.786 314.4 106.176 314.021C106.445 313.768 106.666 313.452 106.825 313.093C106.985 312.735 107.079 312.341 107.102 311.937C107.088 311.516 106.999 311.103 106.843 310.724C106.686 310.346 106.465 310.009 106.193 309.736C105.663 309.093 105.961 309.833 105.366 309.268Z" fill="#8D3800"/>
<path d="M99.3478 316.371C98.6838 316.129 97.9934 315.971 97.2917 315.899C96.5822 315.827 95.8712 316.02 95.292 316.442C95.0092 316.66 94.7984 316.96 94.6877 317.302C94.577 317.644 94.5717 318.013 94.6723 318.358C94.9105 318.914 95.3563 319.351 95.9116 319.574C96.6689 319.989 97.54 320.14 98.3902 320.002C98.8117 319.928 99.207 319.744 99.5377 319.468C99.8684 319.193 100.123 318.835 100.277 318.43C100.413 318.017 100.4 317.569 100.24 317.166C100.08 316.762 99.7836 316.43 99.4041 316.228C99.0661 316.099 99.6858 316.371 99.3478 316.371Z" fill="#8D3800"/>
<g style="mix-blend-mode:multiply" opacity="0.55">
<path d="M180.993 271.408H180.915L180.759 271.259L180.588 271.126C180.544 271.073 180.491 271.029 180.433 270.994L179.826 270.464L179.686 270.348L179.204 269.951L179.064 269.835C178.271 269.173 177.229 268.329 175.954 267.369C176.321 267.227 176.675 267.05 177.012 266.84C176.012 266.647 175.06 266.235 174.217 265.632C173.374 265.028 172.658 264.244 172.113 263.331C170.06 260.452 168.179 256.066 164.136 256.033C162.374 256.088 160.647 255.504 159.237 254.378C155.723 251.299 151.151 252.226 146.532 253.65C143.894 254.469 141.596 256.22 140.017 258.615C138.975 260.27 137.622 261.66 136.673 262.967C134.994 265.284 132.941 268.23 129.94 268.478C127.856 268.66 125.461 267.717 125.275 265.168C125.259 265.014 125.259 264.859 125.275 264.705C122.165 268.644 119.428 273.079 117.22 276.025C117.093 276.192 116.958 276.353 116.815 276.505C116.815 276.704 116.815 276.919 116.815 277.134C117.022 279.12 116.739 281.128 115.995 282.962C115.251 284.797 114.07 286.393 112.57 287.594C113.503 291.135 114.047 295.223 111.326 297.01C110.675 297.429 109.958 297.72 109.211 297.871C109.289 302.472 110.175 305.219 108.045 310.3C105.557 316.159 107.594 319.072 102.462 323.308C100.942 324.506 99.2657 325.459 97.4858 326.138H97.828H98.0768C98.6988 326.221 99.3364 326.271 100.036 326.304C100.736 326.304 101.467 326.304 102.244 326.304H102.773C103.566 326.304 104.328 326.171 105.277 326.056C125.866 323.292 160.59 271.672 181.148 271.441L180.993 271.408Z" fill="#BD9749"/>
</g>
<path d="M114.048 294.641C115.595 283.146 120.822 272.607 128.814 264.87C132.827 261.077 137.579 258.317 142.715 256.799C147.851 255.28 153.238 255.041 158.471 256.1C166.342 257.931 173.207 262.938 179.854 267.861C184.502 271.355 185.695 273.186 190.421 276.681C191.242 277.286 196.433 278.21 196.526 279.268C196.697 280.948 194.109 283.435 192.559 283.922C175.327 289.263 158.852 297.143 143.596 307.343C136.143 312.383 128.985 317.86 121.051 321.909C113.118 325.958 104.193 328.445 95.5625 326.866C97.7511 327.237 99.9913 326.978 102.058 326.114C104.125 325.25 105.946 323.811 107.338 321.943C110.221 318.331 113.35 299.362 114.048 294.641Z" fill="#FAD15F"/>
<path d="M168.418 264.891C159.471 259.935 147.607 255.509 137.981 261.372C130.746 265.783 126.087 272.324 121.953 279.905C117.818 287.487 117.741 296.968 115.473 305.442C114.085 310.645 112.697 318.425 108.886 322.439C107.296 324.153 105.374 325.472 103.255 326.304C109.541 325.814 115.68 324.03 121.336 321.051C129.234 317.07 136.361 311.62 143.782 306.73C158.985 296.699 175.404 288.951 192.577 283.705C194.119 283.226 196.696 280.83 196.526 279.129C196.533 279.096 196.533 279.063 196.526 279.03C186.236 278.716 177.381 269.863 168.418 264.891Z" fill="#F9C22D"/>
<path d="M168.418 264.891C159.471 259.935 147.607 255.509 137.981 261.372C130.746 265.783 126.087 272.324 121.953 279.905C117.818 287.487 117.741 296.968 115.473 305.442C114.085 310.645 112.697 318.425 108.886 322.439C107.296 324.153 105.374 325.472 103.255 326.304C109.541 325.814 115.68 324.03 121.336 321.051C129.234 317.07 136.361 311.62 143.782 306.73C158.985 296.699 175.404 288.951 192.577 283.705C194.119 283.226 196.696 280.83 196.526 279.129C196.533 279.096 196.533 279.063 196.526 279.03C186.236 278.716 177.381 269.863 168.418 264.891Z" fill="#F9C22D"/>
<g style="mix-blend-mode:multiply" opacity="0.55">
<path d="M180.852 274.21C174.011 274.089 167.386 276.758 162.34 281.668C156.169 287.16 150.338 292.848 142.285 294.782C132.397 297.142 125.316 290.635 120.935 282.406C117.757 289.618 117.525 297.962 115.473 305.601C114.085 310.764 112.697 318.485 108.886 322.468C107.296 324.169 105.374 325.478 103.255 326.304C109.541 325.817 115.68 324.047 121.336 321.091C129.234 317.141 136.361 311.731 143.782 306.879C158.985 296.924 175.404 289.235 192.577 284.029C194.119 283.553 196.696 281.176 196.526 279.488C196.533 279.456 196.533 279.422 196.526 279.39C190.939 279.315 185.493 277.515 180.852 274.21V274.21Z" fill="#F2CC49"/>
</g>
<g style="mix-blend-mode:multiply" opacity="0.55">
<path d="M157.262 291.92C147.034 294.539 140.757 299.153 133.254 307.011C129.519 310.881 125.599 315.039 121.526 319.01L122.139 318.723C129.886 314.65 136.975 309.073 144.339 304.003C153.024 298.147 162.117 293.061 171.531 288.793C166.509 289.469 161.503 290.821 157.262 291.92Z" fill="#D68902"/>
</g>
<path d="M152.039 263.155C150.878 262.704 149.593 262.622 148.378 262.922C147.163 263.222 146.084 263.888 145.305 264.82C144.968 265.196 144.74 265.648 144.643 266.133C144.588 266.372 144.594 266.621 144.662 266.857C144.729 267.094 144.856 267.312 145.031 267.492C145.394 267.754 145.829 267.911 146.284 267.947C146.739 267.982 147.195 267.893 147.599 267.691C148.905 267.221 150.069 266.455 150.99 265.461C151.487 264.999 151.786 264.379 151.83 263.72C151.813 263.064 152.734 263.033 152.039 263.155Z" fill="#E9A000"/>
<path d="M140.42 273.596C139.758 273.192 138.994 273.067 138.259 273.24C137.525 273.413 136.865 273.874 136.394 274.544C136.147 274.844 135.994 275.23 135.959 275.641C135.924 276.051 136.008 276.464 136.2 276.813C136.455 277.055 136.759 277.22 137.084 277.291C137.409 277.363 137.744 277.339 138.059 277.223C138.769 277.121 139.446 276.821 140.032 276.348C140.323 276.103 140.542 275.762 140.661 275.37C140.779 274.978 140.791 274.554 140.695 274.154C140.453 273.391 140.938 273.019 140.42 273.596Z" fill="#E9A000"/>
<path d="M156.957 279.089C156.101 278.163 154.987 277.566 153.786 277.387C152.584 277.209 151.361 277.461 150.305 278.103C149.249 278.746 148.418 279.744 147.94 280.944C147.462 282.144 147.362 283.48 147.657 284.747C147.724 285.125 147.867 285.483 148.075 285.795C148.284 286.108 148.554 286.367 148.866 286.555C149.222 286.682 149.599 286.731 149.974 286.7C150.348 286.669 150.713 286.559 151.048 286.374C152.895 285.555 154.515 284.235 155.748 282.542C156.252 281.909 157.545 279.704 156.957 279.089Z" fill="#E9A000"/>
<path d="M171.038 267.257C170.198 267.718 169.359 268.741 169.678 269.784C169.997 270.827 171.055 271.148 171.962 271.068C172.502 271.054 173.031 270.889 173.508 270.587C173.749 270.442 173.958 270.229 174.116 269.967C174.274 269.705 174.376 269.402 174.415 269.082C174.431 268.637 174.322 268.198 174.106 267.835C173.89 267.472 173.579 267.205 173.222 267.076C172.501 266.807 171.722 266.871 171.038 267.257Z" fill="#E9A000"/>
<path d="M181.389 277.027C180.72 276.728 180.012 276.501 179.281 276.349C178.54 276.205 177.764 276.324 177.122 276.68C176.807 276.859 176.568 277.124 176.441 277.434C176.314 277.744 176.306 278.082 176.419 278.396C176.558 278.674 176.779 278.913 177.06 279.091C177.34 279.268 177.669 279.376 178.013 279.404C178.701 279.444 179.391 279.378 180.053 279.209C180.542 279.141 181.013 278.993 181.441 278.772C181.651 278.655 181.823 278.493 181.94 278.3C182.057 278.108 182.115 277.892 182.109 277.674C182.062 277.472 181.957 277.285 181.804 277.13C181.651 276.974 181.455 276.856 181.235 276.786C180.807 276.62 181.801 277.207 181.389 277.027Z" fill="#E9A000"/>
<path d="M169.281 284.301C168.215 283.768 167.036 283.525 165.855 283.595C165.264 283.642 164.696 283.848 164.206 284.193C163.715 284.539 163.321 285.012 163.061 285.565C162.829 286.128 162.816 286.762 163.025 287.335C163.234 287.907 163.649 288.373 164.182 288.634C164.845 288.846 165.555 288.846 166.218 288.634C167.06 288.458 167.853 288.088 168.539 287.551C168.876 287.275 169.134 286.91 169.287 286.494C169.44 286.078 169.481 285.626 169.407 285.187C169.186 284.285 170.054 283.907 169.281 284.301Z" fill="#E9A000"/>
<path d="M143.596 292.072C142.682 292.287 141.847 292.759 141.192 293.435C141.038 293.609 140.921 293.812 140.848 294.032C140.774 294.252 140.746 294.485 140.765 294.717C140.784 294.948 140.849 295.174 140.957 295.379C141.065 295.585 141.213 295.766 141.392 295.913C141.702 296.057 142.046 296.114 142.386 296.075C142.725 296.037 143.048 295.906 143.319 295.696C143.903 295.351 144.337 294.798 144.536 294.147C144.628 293.818 144.629 293.47 144.54 293.14C144.45 292.81 144.273 292.51 144.027 292.274C143.519 291.825 144.228 291.856 143.596 292.072Z" fill="#E9A000"/>
<path d="M126.205 299.292C125.253 299.54 124.395 300.076 123.739 300.832C123.084 301.589 122.661 302.531 122.525 303.538C122.426 304.21 122.53 304.898 122.821 305.507C122.977 305.808 123.208 306.06 123.49 306.236C123.772 306.412 124.095 306.505 124.424 306.507C125.359 306.507 126.012 305.568 126.502 304.738C126.992 303.907 127.348 303.199 127.748 302.476C127.994 302.132 128.156 301.732 128.223 301.309C128.29 300.887 128.26 300.454 128.134 300.046C127.949 299.754 127.688 299.522 127.38 299.377C127.073 299.233 126.732 299.182 126.398 299.231C125.789 299.292 126.858 299.123 126.205 299.292Z" fill="#E9A000"/>
<g style="mix-blend-mode:screen" opacity="0.32">
<path d="M166.308 265.944C164.349 263.282 161.539 261.504 158.429 260.957C155.346 260.438 152.198 260.602 149.177 261.439C141.951 263.278 135.368 267.317 130.211 273.075C128.571 274.599 127.53 276.738 127.297 279.059C127.39 280.389 127.847 281.659 128.61 282.71C129.373 283.76 130.408 284.543 131.583 284.96C133.947 285.741 136.453 285.878 138.877 285.358C144.697 284.348 150.389 282.613 155.838 280.189C158.121 279.359 160.298 278.22 162.314 276.798C164.266 275.331 165.713 273.21 166.431 270.764C166.778 269.542 166.817 268.243 166.546 266.999C166.276 265.756 165.704 264.611 164.889 263.683L166.308 265.944Z" fill="#FAD15F"/>
</g>
<path d="M66.7134 123.137L78.0757 144.985L126.335 121.946L95.9419 107.474C95.9419 107.474 74.1641 117.547 66.7134 123.137Z" fill="#EFEFEC"/>
<path d="M137.873 99.4436L123.45 123.104L193.649 117.55L183.18 94.9709L137.873 99.4436Z" fill="#EFEFEC"/>
<path d="M158.249 137.565L193.649 117.894L122.819 121.39L78.2529 144.985L158.249 137.565Z" fill="#E2B58B"/>
<path d="M84.9844 68.5447L124.31 129.356L128.258 126.63L91.777 62.6701C91.777 62.6701 85.0155 63.0595 84.9844 68.5447Z" fill="#716361"/>
<path d="M99.4092 69.8549L134.644 132.482L138.836 130.139L106.721 64.7551C106.721 64.7551 99.8504 64.5557 99.4092 69.8549Z" fill="#716361"/>
<path d="M104.425 217.22L155.153 217.922L179.631 200.582L193.649 117.894L122.819 121.439L78.2529 145.367L104.425 217.22Z" fill="#EFEFEC"/>
<g style="mix-blend-mode:multiply">
<path d="M158.519 119.978L123.064 121.728L78.2529 145.585L104.569 217.222L155.576 217.922L170.57 207.386L158.519 119.978Z" fill="#EAE6DC"/>
</g>
<path d="M155.184 217.922L179.642 200.582L193.649 117.894L158.462 126.756L155.184 217.922Z" fill="#EFEFEC"/>
<path d="M136.706 184.579C132.436 186.088 127.987 186.961 123.488 187.174C119.309 187.671 115.084 187.514 110.948 186.709L111.626 199.167L138.836 197.886L136.832 185.012L136.706 184.579ZM119.245 196.422L114.134 196.689L113.724 190.567C113.724 189.47 118.63 189.104 118.725 190.218L119.245 196.422ZM126.942 196.04L121.58 196.306L120.933 190.068C120.822 188.937 126.043 188.555 126.17 189.703L126.942 196.04ZM135.034 195.641L129.387 195.923L128.614 189.569C128.472 188.422 133.93 188.023 134.104 189.187L135.034 195.641Z" fill="#716361"/>
<path d="M116.719 190.851L117.077 196.041L118.642 195.948L118.297 191.286C118.271 190.929 117.475 190.773 116.719 190.851Z" fill="#716361"/>
<path d="M115.967 190.862H115.638H115.356H115.137H115.059H114.902H114.808C114.791 190.912 114.791 190.965 114.808 191.015L114.824 196.041L116.719 195.949L116.39 190.831L115.967 190.862Z" fill="#716361"/>
<path d="M123.45 189.813L124.118 196.041L126.335 195.931L125.701 190.452C125.631 189.886 124.523 189.722 123.45 189.813Z" fill="#716361"/>
<path d="M123.557 189.826H123.259H123.001H122.798H122.662H122.581L122.499 189.918C122.485 189.977 122.485 190.041 122.499 190.101L122.906 195.601L124.412 196.041L123.923 189.789L123.557 189.826Z" fill="#716361"/>
<path d="M131.143 189.808L131.924 194.999L134.028 194.91L133.295 190.313C133.295 189.882 132.147 189.733 131.143 189.808Z" fill="#716361"/>
<path d="M130.766 189.819H130.343H129.991H129.727H129.639H129.445H129.34H129.234C129.215 189.868 129.215 189.92 129.234 189.969L129.938 194.46L132.105 194.999L131.242 189.789L130.766 189.819Z" fill="#716361"/>
<path d="M104.929 183.856C107.772 185.316 110.818 186.188 113.926 186.431H114.003C117.078 186.741 120.171 186.741 123.246 186.431C126.473 186.152 129.673 185.562 132.813 184.668V184.668C136.4 183.744 139.822 182.128 142.935 179.888C144.367 178.741 143.335 178.124 142.426 178.388C137.034 180.152 134.723 180.452 131.642 180.152L114.296 181.916C111.31 182.839 108.18 182.965 105.145 182.286C104.328 182.339 103.65 183.098 104.929 183.856Z" fill="#716361"/>
<path d="M113.833 174.366L114.279 181.454L132.105 179.491L131.15 172.076C128.298 173.169 125.344 173.876 122.348 174.184C119.524 174.6 116.669 174.661 113.833 174.366V174.366ZM123.606 175.329C123.606 174.602 126.884 174.166 126.964 174.911L127.505 179L124.099 179.382L123.606 175.329ZM117.574 176.092C117.574 175.365 120.757 174.947 120.757 175.692L121.139 179.709L117.956 180.072L117.574 176.092Z" fill="#716361"/>
<path d="M109.542 172.717C111.591 173.589 113.757 174.063 115.948 174.119V174.119C118.055 174.221 120.165 174.132 122.259 173.852C124.446 173.569 126.61 173.088 128.728 172.415C131.115 171.715 133.389 170.595 135.465 169.097C136.428 168.316 135.765 167.926 135.15 168.157C124.878 171.918 121.66 167.908 121.66 167.908C121.66 167.908 119.388 172.681 109.637 171.847C109.1 171.741 108.627 172.255 109.542 172.717Z" fill="#716361"/>
<path d="M119.603 176.268L119.782 179.37L120.565 179.254L120.386 176.517C120.386 176.268 119.983 176.202 119.603 176.268Z" fill="#716361"/>
<path d="M125.374 175.228L125.602 178.328L126.335 178.197L126.127 175.473C126.107 175.212 125.701 175.163 125.374 175.228Z" fill="#716361"/>
<path d="M124.811 175.694H124.678H124.565H124.473H124.412L124.606 178.328L125.373 178.217L125.138 175.202H124.995L124.811 175.694Z" fill="#716361"/>
<g style="mix-blend-mode:multiply" opacity="0.55">
<g style="mix-blend-mode:multiply" opacity="0.55">
<path d="M94.7991 176.525L146.601 173.552C146.601 173.552 157.403 141.634 158.591 137.742C160.52 131.679 159.687 127.721 162.48 122.058L104.351 131.395L78.4575 145.258L78.8124 146.26C82.9634 150.519 94.7991 176.525 94.7991 176.525Z" fill="#D6C2A6"/>
</g>
</g>
<path d="M169.421 126.23C170.101 122.369 167.233 118.843 166.834 114.916C166.692 113.375 166.933 111.82 167.528 110.424C168.123 109.028 169.05 107.847 170.205 107.012C170.691 106.634 171.257 106.409 171.845 106.36C172.138 106.343 172.429 106.414 172.689 106.567C172.949 106.72 173.168 106.948 173.324 107.229C173.841 108.299 172.998 109.552 172.23 110.404C172.537 110.533 172.864 110.588 173.191 110.566C173.518 110.544 173.837 110.444 174.127 110.274C174.418 110.104 174.675 109.868 174.88 109.579C175.085 109.291 175.235 108.957 175.319 108.6C175.449 107.862 175.363 107.097 175.075 106.419C174.787 105.741 174.313 105.187 173.723 104.84C173.125 104.516 172.471 104.349 171.808 104.349C171.146 104.349 170.492 104.516 169.894 104.84C168.684 105.474 167.632 106.439 166.834 107.647C165.767 109.039 164.957 110.658 164.449 112.408C163.941 114.158 163.747 116.005 163.878 117.841C164.044 119.675 164.648 121.424 165.624 122.901C166.6 124.379 167.912 125.529 169.421 126.23V126.23Z" fill="#FBDF6A"/>
<path d="M111.713 138.733C112.25 134.522 111.685 130.236 110.081 126.336C109.25 124.395 107.954 122.714 106.319 121.457C104.684 120.2 102.767 119.411 100.754 119.166C99.9782 119.043 99.1851 119.129 98.4487 119.414C97.7123 119.7 97.0564 120.176 96.5418 120.799C96.1302 121.536 95.9883 122.405 96.1428 123.244C96.2974 124.083 96.7376 124.834 97.3812 125.356C98.0492 125.846 98.844 126.108 99.6585 126.108C100.473 126.108 101.268 125.846 101.936 125.356C102.587 124.843 103.107 124.169 103.451 123.394C103.796 122.619 103.953 121.767 103.91 120.913C103.792 119.196 103.066 117.587 101.874 116.405C101.401 115.865 100.823 115.44 100.179 115.158C99.535 114.876 98.8402 114.744 98.1429 114.772C97.4498 114.828 96.8016 115.154 96.3245 115.686C95.8475 116.217 95.5759 116.916 95.5625 117.646C96.3128 117.088 97.2136 116.796 98.1331 116.814C99.0525 116.832 99.9423 117.159 100.672 117.747C101.402 118.335 101.933 119.153 102.189 120.081C102.444 121.01 102.41 122 102.091 122.906C101.842 123.67 101.333 124.31 100.661 124.703C100.32 124.883 99.9354 124.953 99.5562 124.904C99.177 124.855 98.8204 124.688 98.5315 124.425C98.2191 124.059 98.0463 123.585 98.0463 123.094C98.0463 122.602 98.2191 122.128 98.5315 121.763C98.8593 121.409 99.2644 121.146 99.7115 120.995C100.159 120.844 100.634 120.81 101.096 120.897C102.019 121.078 102.887 121.486 103.63 122.089C105.838 123.786 107.514 126.136 108.444 128.839C109.375 131.542 109.517 134.475 108.853 137.263L111.713 138.733Z" fill="#FBDF6A"/>
<g style="mix-blend-mode:multiply">
<path d="M153.261 182.395C151.717 183.459 150.081 184.439 148.553 185.253C139.06 190.239 128.858 189.641 119.226 185.253C109.676 180.846 101.562 173.475 95.919 164.081C93.0664 159.053 90.7469 153.696 89.0041 148.111L83.0615 151.268L105.936 213.555L151.841 213.754C152.396 209.583 153.261 182.395 153.261 182.395Z" fill="#F1EAE2"/>
</g>
<path d="M190.081 120.93C188.591 118.848 186.902 116.93 185.042 115.208C183.171 113.466 180.821 112.396 178.333 112.151C176.366 112.106 174.445 112.78 172.898 114.058C171.35 115.335 170.272 117.138 169.847 119.158C169.567 116.651 168.383 114.352 166.539 112.737C164.695 111.112 162.658 109.746 160.479 108.672C158.403 108.368 156.289 108.51 154.267 109.092C152.245 109.673 150.356 110.681 148.716 112.054C147.19 113.187 146.095 114.851 145.624 116.752C145.415 119.057 145.788 121.379 146.706 123.483C147.796 127.182 149.356 130.709 151.344 133.968C152.276 135.376 153.401 136.631 154.683 137.691L174.129 134.716C179.431 131.27 184.671 127.677 189.788 123.938C190.24 123.682 190.587 123.259 190.762 122.751C190.777 122.414 190.724 122.078 190.607 121.764C190.49 121.45 190.311 121.166 190.081 120.93V120.93Z" fill="#FBDF6A"/>
<path d="M187.301 122.005L183.753 119.033C182.303 117.661 180.634 116.611 178.835 115.939C177.951 115.605 176.998 115.577 176.099 115.857C175.201 116.138 174.397 116.714 173.793 117.512C173.281 118.529 172.889 119.616 172.626 120.746C172.535 121.416 172.251 122.034 171.818 122.505C171.384 122.977 170.825 123.275 170.225 123.354C169.626 123.434 169.02 123.29 168.501 122.945C167.982 122.6 167.577 122.073 167.35 121.445C166.572 120.204 166.152 118.718 165.421 117.425C164.614 116.075 163.545 114.949 162.294 114.132C161.043 113.314 159.643 112.826 158.2 112.705C155.387 112.534 152.602 113.413 150.279 115.205C148.008 116.955 145.996 119.096 144.319 121.55C143.759 122.319 143.276 123.595 144.039 124.242C144.801 124.889 145.502 124.242 146.062 123.753C147.774 122.197 149.345 120.449 151.151 119.015C152.953 117.482 155.119 116.582 157.375 116.428C158.529 116.37 159.677 116.631 160.719 117.189C161.761 117.747 162.665 118.584 163.351 119.627C164.067 120.833 164.394 122.267 165.094 123.455C165.9 124.798 167.136 125.74 168.545 126.085C169.953 126.43 171.426 126.152 172.657 125.308C173.672 124.334 174.571 123.218 175.334 121.987C175.713 121.384 176.202 120.877 176.768 120.5C177.333 120.124 177.964 119.886 178.617 119.802C179.367 119.907 180.09 120.186 180.738 120.623C181.387 121.059 181.947 121.643 182.383 122.337C183.238 123.738 184.34 124.928 185.62 125.833C186.239 126.211 186.964 126.305 187.643 126.095C187.98 125.979 188.276 125.749 188.49 125.436C188.705 125.122 188.828 124.742 188.841 124.347C188.826 123.298 188.032 122.599 187.301 122.005Z" fill="#E5B348"/>
<path d="M130.181 113.936C130.181 113.936 136.634 102.713 146.03 105.99C155.427 109.267 155.183 119.573 155.183 119.573C155.183 119.573 150.134 134.582 141.042 134.565C131.951 134.548 131.661 117.79 130.181 113.936Z" fill="#BE7139"/>
<g style="mix-blend-mode:multiply" opacity="0.55">
<path d="M151.767 109.798C151.372 111.618 150.507 113.266 149.28 114.532C146.824 117.002 143.178 119.18 139.959 116.934C137.214 114.978 136.085 111.411 133.385 109.558C132.175 110.788 131.099 112.176 130.181 113.692C131.707 117.585 131.707 134.565 141.027 134.565C150.348 134.565 155.184 119.386 155.184 119.386C155.004 115.857 153.804 112.491 151.767 109.798V109.798Z" fill="#C47F4C"/>
</g>
<path d="M136.298 141.358L160.047 137.871L164.8 136.77C163.186 136.484 161.593 136.071 160.032 135.535C156.536 133.503 155.156 129.779 156.705 126.207C157.732 123.82 161.381 117.946 157.333 116.05C156.668 115.772 155.958 115.651 155.248 115.694C153.692 115.734 152.166 116.176 150.792 116.984C149.418 117.793 148.235 118.945 147.337 120.35C145.62 123.075 144.516 126.342 141.449 127.612C135.7 130.067 137.463 121.602 136.083 118.217C135.445 116.869 134.525 115.708 133.4 114.831C131.699 113.262 129.649 112.225 127.463 111.826C125.277 111.427 123.033 111.681 120.966 112.562C118.514 113.851 116.522 116.008 115.308 118.691C114.15 121.209 113.295 123.884 112.763 126.647C112.349 128.661 111.751 131.404 109.835 132.318C107.918 133.232 105.588 130.371 104.239 128.932C101.663 126.342 96.9715 125.547 93.7978 125.885C87.9563 126.596 83.4334 133.215 85.4879 139.428C86.8744 143.023 89.3445 145.978 92.4792 147.791L92.5712 147.689C92.9852 147.892 92.7245 147.943 93.1232 147.859C94.733 149.365 97.3088 149.213 99.3479 149.06C103.687 148.756 107.811 148.349 112.165 147.909C119.264 147.198 126.255 145.895 133.247 145.268L137.065 144.964L136.298 141.358Z" fill="#FBDF6A"/>
<path d="M141.527 134.764C143.312 133.897 147.548 126.833 149.566 129.465C151.118 131.591 149.938 136.105 150.435 138.525L150.528 138.852L155.184 138.132C153.798 137.166 152.803 135.691 152.39 133.995C152.042 132.507 152.085 130.946 152.515 129.482C152.774 128.817 152.897 128.101 152.875 127.383C152.854 126.664 152.689 125.959 152.39 125.312C151.723 124.887 150.575 124.429 149.969 125.034C149.892 125.034 148.743 125.966 147.564 126.669C146.597 127.319 145.678 128.046 144.817 128.844C142.901 130.549 140.586 131.678 138.113 132.115C135.319 132.458 134.404 130.643 133.845 128.206C133.38 126.244 133.287 123.121 131.812 121.469C131.359 120.976 130.813 120.589 130.208 120.333C129.604 120.077 128.956 119.957 128.305 119.981C125.683 119.95 123.13 120.868 121.073 122.581C118.603 124.58 116.703 127.255 115.579 130.316C115.005 131.951 114.54 133.586 113.919 135.222C112.724 138.279 110.489 139.751 107.385 137.347C105.151 135.598 103.692 133.406 101.038 132.164C97.7635 130.61 94.6132 130.267 91.7267 132.016C85.8294 135.532 89.9109 142.695 95.3271 145.327C96.2427 145.769 96.3048 146.652 97.0497 145.327C97.7946 144.003 94.5666 142.253 93.9459 141.337C91.2145 137.723 95.6995 134.993 98.9895 135.598C102.28 136.203 104.282 139.588 107.525 140.552C108.898 140.892 110.333 140.831 111.675 140.376C113.018 139.921 114.217 139.088 115.145 137.969C117.488 135.287 119.056 131.722 120.98 128.713C122.221 126.784 125.341 123.807 127.963 125.999C130.26 127.863 130.369 131.788 132.48 133.995C135.056 136.644 138.749 136.137 141.527 134.764Z" fill="#E5B348"/>
<path d="M122.509 143.316C122.509 143.316 121.407 124.75 135.245 127.562C148.658 130.257 149.414 140.371 149.414 140.371C149.414 140.371 127.374 148.357 122.509 143.316Z" fill="#BE7139"/>
<path d="M184.033 126.638C184.033 126.638 173.222 114.532 163.538 125.862C157.87 132.498 163.291 139.775 163.291 139.775L184.033 126.638Z" fill="#BE7139"/>
<g style="mix-blend-mode:multiply" opacity="0.55">
<path d="M190.096 121.105L189.199 119.896C186.571 117.948 184.329 115.765 180.634 117.461C177.835 119.879 175.995 124.278 172.903 126.343C169.811 128.409 165.404 127.687 162.266 129.215C161.297 130.651 160.116 131.905 158.772 132.925C158.11 134.003 157.243 134.915 156.23 135.598C155.216 136.282 154.079 136.722 152.896 136.888C151.455 137.169 149.973 137.097 148.56 136.675C147.148 136.254 145.84 135.495 144.733 134.453C144.609 134.453 139.739 132.976 139.631 132.976C132.503 133.681 137.049 138.332 123.118 137.341C121.454 138.509 119.532 139.17 117.552 139.255C113.919 141.254 108.94 141.489 104.704 141.976C101.967 142.278 97.1894 143.218 94.19 141.673C93.2002 141.175 92.1068 140.971 91.0207 141.08C89.9345 141.189 88.8943 141.608 88.0055 142.295L86.9077 143.151C88.3317 145.015 90.0487 146.589 91.979 147.802L92.0718 147.701C92.4892 147.903 92.2264 147.953 92.6284 147.869C94.2518 149.363 96.8493 149.212 98.9056 149.061C103.281 148.759 107.44 148.356 111.831 147.919C118.99 147.214 126.04 145.921 133.09 145.3L136.94 144.998L136.832 144.494C140.912 143.547 144.938 142.347 148.892 140.901C148.85 140.446 148.767 139.996 148.644 139.558L160.07 137.879L161.616 137.526C161.937 138.352 162.336 139.14 162.807 139.877L168.651 136.216L174.125 135.343C178.454 132.438 182.721 129.399 186.942 126.293C187.136 126.28 187.329 126.24 187.514 126.175C187.756 126.088 187.978 125.946 188.164 125.758C188.351 125.569 188.498 125.34 188.596 125.084L189.787 124.211C190.239 123.946 190.586 123.51 190.761 122.985C190.778 122.639 190.728 122.292 190.613 121.968C190.499 121.644 190.322 121.35 190.096 121.105V121.105Z" fill="#C47F4C"/>
</g>
<path d="M78.2529 144.407L95.6475 168.95L143.014 164.738L159.03 137.691L78.2529 144.407Z" fill="#EFEFEC"/>
<g style="mix-blend-mode:multiply">
<path d="M107.591 143.943L81.1382 146.188L97.1476 167.908L137.875 164.216C127.665 157.697 117.644 150.795 107.591 143.943Z" fill="#F2EBE5"/>
</g>
<g style="mix-blend-mode:multiply">
<path d="M171.366 183.101L173.652 138.733L169.894 139.338L169.265 183.487L155.306 214.275L155.184 217.922L156.81 216.763L170.246 191.907L178.959 200.915L179.557 200.495L180.186 196.747L171.366 183.101Z" fill="#EBE5DF"/>
</g>
<g style="mix-blend-mode:multiply" opacity="0.55">
<path d="M188.276 150.203L193.649 117.894L159.03 137.783C159.03 137.783 167.459 160.473 171.388 165.824C174.699 163.874 188.276 150.203 188.276 150.203Z" fill="#DBC9B0"/>
</g>
<path d="M172.847 157.488L198.457 137.834L194.505 117.894L159.03 137.884L172.847 157.488Z" fill="#EFEFEC"/>
<g style="mix-blend-mode:multiply">
<path d="M161.916 139.708L172.807 154.363L196.534 137.002L195.834 133.523C185.192 135.134 172.527 138.081 161.916 139.708Z" fill="#F2EBE5"/>
</g>
<ellipse cx="107.583" cy="230.947" rx="3.36572" ry="3.64686" fill="#73A624"/>
<path d="M180.07 236.748C179.071 238.651 176.21 238.086 174.651 237.071C173.092 236.056 171 233.639 172.778 230.433C174.556 227.227 177.608 229.314 179.167 230.329C180.726 231.344 181.069 234.844 180.07 236.748Z" fill="#73A624"/>
<path d="M209.776 157.216C211.513 158.864 209.609 162.938 207.763 165.082C205.917 167.226 202.235 169.989 199.352 167.075C196.469 164.16 200.196 159.974 202.042 157.83C203.888 155.686 208.04 155.568 209.776 157.216Z" fill="#BE7139"/>
<path d="M248.576 330.422C244.434 334.492 238.501 335.641 236.18 332.868C233.86 330.095 233.836 326.346 237.978 322.276C242.12 318.206 245.15 318.222 247.471 320.995C249.792 323.768 252.718 326.352 248.576 330.422Z" fill="#FF3333"/>
</svg>
